<svg id="Layer_4" data-name="Layer 4" xmlns="http://www.w3.org/2000/svg" viewBox="0 0 30 30"><defs><style>.cls-1,.cls-4{fill:#02a569;}.cls-1{opacity:0.1;}.cls-2{fill:#3a4d95;}.cls-3{fill:#fff;}</style></defs><title>alumni</title><circle class="cls-1" cx="12.85" cy="13.45" r="11.93"/><path class="cls-2" d="M10.34,28.48a.32.32,0,0,1-.31-.33,6.74,6.74,0,0,1,1.87-4.7,6.2,6.2,0,0,1,4.14-2h.17l.53-1.08-.24-.14a6.09,6.09,0,0,1-2.84-5.32V12l-.2-.14-3.2-.94a.34.34,0,0,1,0-.64l8.48-2.5h.17l8.73,2.5a.49.49,0,0,1,.3.25.28.28,0,0,1,0,.2l0,.1,0,.11c-.07,1.1-.09,4-.09,6.32v.2l.19.07a2.07,2.07,0,0,1,1,1.81v1.47a.32.32,0,0,1-.31.33H26.1a.32.32,0,0,1-.32-.33V19.31a2.09,2.09,0,0,1,1-1.81l.19-.07V11l-3,.88v3a6.09,6.09,0,0,1-2.84,5.32l-.23.14.52,1.08h.17a6.2,6.2,0,0,1,4.14,2,6.74,6.74,0,0,1,1.87,4.7.32.32,0,0,1-.31.33Z"/><path class="cls-3" d="M16.73,22l.5-1.37a5.71,5.71,0,0,0,3.14,0l.52,1.17L18.8,25.21Z"/><path class="cls-4" d="M21.37,22A6.24,6.24,0,0,1,27,27.91H19.2V25.66Z"/><path class="cls-4" d="M16.2,22a6.24,6.24,0,0,0-5.63,5.91h7.91V25.65Z"/><path class="cls-3" d="M18.84,20.21c-2.26,0-4.15-2.35-4.57-5.45a9.17,9.17,0,0,0,9.14,0C23,17.86,21.1,20.21,18.84,20.21Z"/><path class="cls-3" d="M23.39,13.56a.71.71,0,0,1-.3.48,8.76,8.76,0,0,1-8.5,0,.76.76,0,0,1-.32-.65V12.08c4.74,1.54,4.44,1.46,4.57,1.46s-.17.08,4.57-1.46C23.41,14.21,23.41,13.45,23.39,13.56Z"/><polygon class="cls-3" points="18.86 12.73 11.45 10.55 18.67 8.38 26.08 10.55 18.86 12.73"/><path class="cls-3" d="M28.19,20h-1v-.65c0-.35.15-.64.5-.64s.5.29.5.64Z"/></svg>