<svg xmlns="http://www.w3.org/2000/svg" viewBox="0 0 30 30"><defs><style>.cls-1,.cls-3{fill:#02a569;}.cls-1{opacity:0.1;}.cls-2{fill:#3a4d95;}.cls-4{fill:#fff;}</style></defs><title>auditorium</title><g id="Layer_3" data-name="Layer 3"><circle class="cls-1" cx="12.55" cy="13.14" r="11.93"/></g><g id="Layer_30" data-name="Layer 30"><rect class="cls-2" x="8.99" y="7.4" width="18.02" height="8.88"/><path class="cls-2" d="M8,28.19V25.27a2.17,2.17,0,0,1,2.18-2.15h1.1a2.16,2.16,0,0,1,2.17,2.15v2.92Z"/><path class="cls-2" d="M23.33,28.19V25.27a2.17,2.17,0,0,1,2.18-2.15h1.1a2.16,2.16,0,0,1,2.17,2.15v2.92Z"/><path class="cls-2" d="M15.66,26.69V23.77a2.16,2.16,0,0,1,2.17-2.15h1.11a2.16,2.16,0,0,1,2.17,2.15v2.92Z"/></g><g id="Layer_9" data-name="Layer 9"><rect class="cls-3" x="9.89" y="8.3" width="16.22" height="7.08"/><path class="cls-4" d="M8.89,25.34A1.33,1.33,0,0,1,10.21,24h1a1.33,1.33,0,0,1,1.33,1.32v1.95H8.89Z"/><path class="cls-4" d="M24.24,25.34A1.33,1.33,0,0,1,25.57,24h1a1.32,1.32,0,0,1,1.33,1.32v1.95H24.24Z"/><path class="cls-4" d="M16.56,23.84a1.33,1.33,0,0,1,1.33-1.32h1a1.33,1.33,0,0,1,1.34,1.32v1.95H16.56Z"/></g></svg>