<svg xmlns="http://www.w3.org/2000/svg" viewBox="0 0 30 30"><defs><style>.cls-1,.cls-2{fill:#02a569;}.cls-1{opacity:0.1;}.cls-3{fill:#fff;}.cls-4{fill:#3a4d95;}</style></defs><title>boys-hostel</title><g id="Layer_3" data-name="Layer 3"><circle class="cls-1" cx="12.55" cy="13.14" r="11.93"/></g><g id="Layer_4" data-name="Layer 4"><path class="cls-2" d="M15.2,20.37a4.26,4.26,0,0,0,3.16,1.51,4.26,4.26,0,0,0,3.06-1.51,31.06,31.06,0,0,1,6.25,3.21,29.93,29.93,0,0,1,1,4.49H8.13a38.22,38.22,0,0,1,1.44-4.94A61.09,61.09,0,0,1,15.2,20.37Z"/><path class="cls-3" d="M13.48,14.87a1,1,0,0,0,.16-.2l.06-.09a5.18,5.18,0,0,0,1.38-2.91,5.25,5.25,0,0,0,3.52.76,12.05,12.05,0,0,0,4.21-1.93c.45.9,0,2.29.25,3.53a1,1,0,0,0,.34.82.64.64,0,0,1,.14.47,1.47,1.47,0,0,1-.27.82.94.94,0,0,0-.34.53c-.38,1.73-2.34,5.09-4.57,5.09-2.58,0-4-3.33-4.46-5.09a.85.85,0,0,0-.35-.53,1.12,1.12,0,0,1-.25-.65A.75.75,0,0,1,13.48,14.87Z"/><path class="cls-3" d="M22.07,11.16c-.1-.13-.29-.5-.45-.51s-.35.1-.6.31a4.59,4.59,0,0,1-2.49,1.19,3.83,3.83,0,0,1-2.83-.9c-.16-.18-.48-.46-.7-.36s.11.22.13.46c0,0,.2.1-.13,1.25,0,.15-1,1.64-1.06,1.8a5.61,5.61,0,0,1,0-4c.52-1.17,1-1.91,1.33-1.91s.74-.31.84-.18a1.64,1.64,0,0,0,.77.46c.21,0,.24.28.4.14a3.81,3.81,0,0,1,2.34-1.26c1,0,2.65,1.59,3.25,3,0,.05-.36.6-.35.67C22.46,11.13,22.17,11.28,22.07,11.16Z"/></g><g id="Layer_23" data-name="Layer 23"><path class="cls-4" d="M8.12,28.39a.29.29,0,0,1-.26-.13.36.36,0,0,1-.07-.3c1-4.08,1.44-4.89,1.6-5l0,0,.06-.07c.47-.67,2.3-1.57,5.14-2.52l.49-.16-.28-.43a9.32,9.32,0,0,1-1.14-2.62l0-.09-.06-.08a2,2,0,0,1-.5-1.19,1.82,1.82,0,0,1,.24-1.09l.09-.16-.06-.18a5.76,5.76,0,0,1,.16-4.3c.66-1.49,1.42-2.25,2.26-2.25a1.63,1.63,0,0,1,1,.38l.23.19.25-.18a4.68,4.68,0,0,1,2.59-1c1.4,0,2.55,1,3.32,2.81a10.33,10.33,0,0,1,.21,3.67c0,.18,0,.66,0,.66l.09.11a1.64,1.64,0,0,1,.31,1.09,2.34,2.34,0,0,1-.49,1.38l-.06.07,0,.09a8.72,8.72,0,0,1-1.27,2.63l-.31.43.5.18a23.31,23.31,0,0,1,5.48,2.58c.21.19.68,1.11,1.42,5.08a.36.36,0,0,1-.08.3.3.3,0,0,1-.25.12Zm7.23-7.62a50.62,50.62,0,0,0-4.72,1.88c-.23.13-.4.23-.53.29l-.28.5-.06.12a30.39,30.39,0,0,0-1.09,3.63l-.13.5H28.25l-.1-.48a22.51,22.51,0,0,0-1-3.7l-.05-.09L27,23.36a31.15,31.15,0,0,0-5.76-2.59l-.22-.08-.18.16a3.53,3.53,0,0,1-5.12,0l-.18-.17Zm-.11-8.37a3.75,3.75,0,0,1-.86,2.12,1.31,1.31,0,0,0-.17.22c-.07.11-.16.07-.19.1a1,1,0,0,0-.27.83,1.3,1.3,0,0,0,.35.8.42.42,0,0,1,.17.24c.37,1.57,1.7,4.54,4.1,4.54,2.09,0,3.85-3,4.2-4.55a.31.31,0,0,1,.13-.2,1.62,1.62,0,0,0,.38-1,.89.89,0,0,0-.25-.72c-.1-.08-.14-.15-.15-.38l-.09-.53A9,9,0,0,0,22,11.64l-.22-.43-.38.29a7.16,7.16,0,0,1-2.84,1.18,3.56,3.56,0,0,1-.55,0,3.86,3.86,0,0,1-2.11-.6l-.54-.36Zm.54-4c-.55,0-1.12.64-1.65,1.84a4.92,4.92,0,0,0-.38,2.82L14,14.5l.55-1.3a3.91,3.91,0,0,0,.18-.51A6.28,6.28,0,0,0,15,10.78a.16.16,0,0,1,.09-.17h.06a.12.12,0,0,1,.12.05,4.22,4.22,0,0,0,2.8,1.26l.39,0a4.69,4.69,0,0,0,2.62-1.23c.21-.19.31-.27.41-.27a.93.93,0,0,1,.32.11c.71.79,1,2.84,1.06,3l0-2.06a3.58,3.58,0,0,0-.37-1.13C21.9,8.7,21,7.9,19.85,7.9a4.48,4.48,0,0,0-2.66,1.18.31.31,0,0,1-.22.09A.36.36,0,0,1,16.7,9,1.32,1.32,0,0,0,15.78,8.45Z"/></g></svg>