<svg xmlns="http://www.w3.org/2000/svg" viewBox="0 0 30 30"><defs><style>.cls-1,.cls-3{fill:#02a569;}.cls-1{opacity:0.1;}.cls-2{fill:#3a4d95;}.cls-4{fill:#fff;}</style></defs><title>cafeteria</title><g id="Layer_3" data-name="Layer 3"><circle class="cls-1" cx="12.55" cy="13.14" r="11.93"/></g><g id="Layer_29" data-name="Layer 29"><path class="cls-2" d="M12.48,25.42l-.11-.11C9.7,22.64,7.68,17.4,7.68,13.13v-.34h17.6v.34a11.07,11.07,0,0,1-.07,1.14l0,.29.28,0a4,4,0,0,1,3.61,3.89,4.11,4.11,0,0,1-4.17,3.92,3.94,3.94,0,0,1-1.66-.34L23,22l-.14.24a13.84,13.84,0,0,1-2.26,3.11l-.12.11Z"/><rect class="cls-2" x="8.14" y="27.59" width="16.69" height="0.9"/><path class="cls-2" d="M16.57,11.43a2.47,2.47,0,0,1,.19-.86,1.47,1.47,0,0,0-.16-1.29,1.55,1.55,0,0,1-.29-1.35l.87.2a.94.94,0,0,0,.19.78,1.94,1.94,0,0,1,.3,1.79,2.17,2.17,0,0,0-.2.73Z"/><path class="cls-2" d="M13.57,11.43a2.55,2.55,0,0,1,.2-.86,1.5,1.5,0,0,0-.17-1.29,1.73,1.73,0,0,1,0-2.1l.79.34c-.41.76-.25,1.1-.05,1.39a2,2,0,0,1,.31,1.79,2.2,2.2,0,0,0-.21.73Z"/><path class="cls-2" d="M19.6,11.43a3,3,0,0,1,.19-.87,1.45,1.45,0,0,0-.16-1.28,1.73,1.73,0,0,1,0-2.1l.79.34c-.41.76-.25,1.1-.05,1.39a2,2,0,0,1,.31,1.79,2.2,2.2,0,0,0-.21.73Z"/></g><g id="Layer_8" data-name="Layer 8"><path class="cls-3" d="M12.84,24.62a19,19,0,0,1-4.37-11h16a19.24,19.24,0,0,1-4.37,11Z"/><path class="cls-4" d="M24.69,21.73a3.75,3.75,0,0,1-1.36-.38,21,21,0,0,0,1.24-3,17.2,17.2,0,0,0,.64-3.07,3.28,3.28,0,0,1,3.12,3.19A3.49,3.49,0,0,1,24.69,21.73Z"/></g></svg>