<svg xmlns="http://www.w3.org/2000/svg" width="316.549" height="263.47" viewBox="0 0 316.549 263.47">
    <defs>
        <clipPath id="l5ij47abqa">
            <path data-name="Path 228" d="M163.7 331.462H90.651l-8.183-29.922-.717-2.27-.478-1.911L79.9 292.7h72.03l1.433 4.659.538 1.911.717 2.27z" transform="translate(-79.9 -292.7)"/>
        </clipPath>
    </defs>
    <g data-name="Group 85">
        <path data-name="Path 47" d="M332.858 224.635s19.71 32.849-34.641 56.74c-26.339 11.587-17.261 15.35-44.795-23.293-15.35-21.561-33.865-37.15-49.513-50.708l-.179-.119c-1.195-.9-16.246-12.244-19.053-26.817a9.119 9.119 0 0 1 .478-5.2c.06-.06.06-.179.119-.239a7.7 7.7 0 0 1 3.285-3.046c5.495-3.106 13.259-5.435 14.633-5.853 2.27-.657 2.927-.836 2.986-1.195a2.66 2.66 0 0 1 2.568-2.509h1.493c1.672.239 14.932 2.09 17.141 3.345s3.763 2.628.358 4.6q-1.075.627-2.329 1.254c-3.7 1.971-7.944 4.181-6.331 7.406 1.195 2.329 6.869 8.421 15.768 12.124 11.706 4.838 19.172 6.749 35.238 11.945 4.42 1.613 14.513 5.435 22.7 8.362z" transform="translate(-74.365 -71.957)" style="opacity:.6;fill:#e2e9f2"/>
        <g data-name="Group 82" style="opacity:.6">
            <path data-name="Path 48" d="M290.5 286.578c-2.509-4.3-5.077-8.481-7.824-12.6s-5.614-8.123-8.66-12.065a210.777 210.777 0 0 0-19.59-22.278A216.869 216.869 0 0 0 207 204.1a91.487 91.487 0 0 1-11.049-10.452 48.279 48.279 0 0 1-4.539-6.032 22.775 22.775 0 0 1-1.732-3.4 12.923 12.923 0 0 1-.9-3.7 6 6 0 0 1 .836-3.643 9.4 9.4 0 0 1 2.747-2.568 44.95 44.95 0 0 1 6.51-3.942 50.769 50.769 0 0 1 7.107-2.628c.6-.179 1.195-.358 1.792-.6l.9-.358a1.756 1.756 0 0 0 .717-.6.953.953 0 0 0-.119-.9 6.324 6.324 0 0 0-.717-.6 15.226 15.226 0 0 0-1.732-.776 9.024 9.024 0 0 1 1.732.776 2.39 2.39 0 0 1 .717.6.834.834 0 0 1 .179.9 1.756 1.756 0 0 1-.717.6l-.9.358c-.6.239-1.195.418-1.792.6a39.966 39.966 0 0 0-13.618 6.57 10.21 10.21 0 0 0-2.747 2.568 5.994 5.994 0 0 0-.836 3.643 13.312 13.312 0 0 0 .836 3.7 18.255 18.255 0 0 0 1.732 3.4 50.4 50.4 0 0 0 4.539 6.092A95.621 95.621 0 0 0 207 204.1a215.869 215.869 0 0 1 67.311 57.7c3.046 3.942 5.913 7.944 8.72 12.065 2.747 4.121 5.375 8.362 7.884 12.6z" transform="translate(-76.081 -72.561)" style="fill:#425aa4"/>
        </g>
        <g data-name="Group 83" style="opacity:.6">
            <path data-name="Path 49" d="M224.9 162.9c3.345.6 6.749 1.075 10.094 1.911a32.837 32.837 0 0 1 4.838 1.613c.776.358 1.553.776 2.27 1.195.179.119.418.239.358.478a1.138 1.138 0 0 1-.3.6 6.521 6.521 0 0 1-1.015.776c-1.433.956-2.927 1.852-4.241 2.867a11.447 11.447 0 0 0-3.4 3.763 5.116 5.116 0 0 0-.6 2.449 5.912 5.912 0 0 0 .6 2.449 13.5 13.5 0 0 0 3.225 3.882 58.475 58.475 0 0 0 8.421 5.793c2.986 1.732 6.032 3.285 9.078 4.778a102.429 102.429 0 0 0 9.556 3.763c3.225 1.195 6.45 2.21 9.735 3.285 13.02 4.241 26.041 8.421 39.061 12.781s25.921 8.9 38.7 13.856l-.179.418c-12.781-4.957-25.682-9.557-38.642-13.978s-25.981-8.6-39-12.9c-3.225-1.075-6.51-2.15-9.735-3.345s-6.45-2.329-9.556-3.763a100.965 100.965 0 0 1-9.078-4.778 54.4 54.4 0 0 1-8.421-5.853 13.023 13.023 0 0 1-3.288-3.94 5.96 5.96 0 0 1-.6-2.508 5.184 5.184 0 0 1 .6-2.509 11 11 0 0 1 3.464-3.763c1.374-1.015 2.867-1.911 4.241-2.867a6.52 6.52 0 0 0 1.015-.776.8.8 0 0 0 .3-.538c0-.239-.179-.358-.358-.478a16.448 16.448 0 0 0-2.27-1.195 23.017 23.017 0 0 0-4.838-1.613c-3.286-.778-6.69-1.253-10.035-1.853z" transform="translate(-90.637 -72.158)" style="fill:#425aa4"/>
        </g>
        <g data-name="Group 84" style="opacity:.6">
            <path data-name="Path 50" d="M334.962 267.243a1268.477 1268.477 0 0 1-18.157-12.9c-2.986-2.15-6.032-4.36-9.078-6.45s-6.212-4.061-9.377-6.032l-18.874-11.826-9.437-5.913-4.718-2.986-2.389-1.493-2.389-1.374c-12.781-7.466-25.264-15.768-36.015-26.041a22.114 22.114 0 0 1-3.584-4.241 12.439 12.439 0 0 1-1.911-5.2 14.087 14.087 0 0 1-.06-2.747 9.561 9.561 0 0 1 .179-1.374 3.487 3.487 0 0 1 .478-1.314 7.627 7.627 0 0 1 1.732-2.15c.657-.6 1.433-1.195 2.15-1.732 1.493-1.075 3.106-2.031 4.659-3.046a11.889 11.889 0 0 0 2.15-1.732 2.478 2.478 0 0 0 .717-1.195 1.83 1.83 0 0 0-.179-1.374c-.179-.478-.657-.6-1.075-.836l-1.254-.538a14.475 14.475 0 0 0-2.688-.6 58.833 58.833 0 0 1-5.495-.956c1.792.418 3.643.657 5.495.956a13.483 13.483 0 0 1 2.688.6 4.68 4.68 0 0 1 1.254.538c.418.239.9.358 1.075.836a2.66 2.66 0 0 1 .179 1.374 3.047 3.047 0 0 1-.717 1.195 11.887 11.887 0 0 1-2.15 1.732c-1.553 1.075-3.106 1.971-4.659 3.046a20.939 20.939 0 0 0-2.15 1.732 8.57 8.57 0 0 0-1.732 2.15 4.936 4.936 0 0 0-.478 1.314c-.06.478-.119.9-.179 1.374a14.087 14.087 0 0 0 .06 2.747 12.439 12.439 0 0 0 1.911 5.2 22.114 22.114 0 0 0 3.584 4.241c10.751 10.213 23.233 18.515 36.015 25.981l2.389 1.374 2.389 1.493 4.718 2.924 9.437 5.913 18.874 11.767c3.165 1.971 6.271 3.942 9.377 5.973s6.092 4.241 9.138 6.391c6.032 4.3 12.124 8.541 18.216 12.781z" transform="translate(-88.234 -72.279)" style="fill:#425aa4"/>
        </g>
    </g>
    <path data-name="Path 51" d="M133.9 33.25c1.672-.9.478-2.927-1.613-3.464-1.911-.478-3.763.239-5.555-.06-1.433-.358-2.867-1.493-4.539-1.911-4.479-1.015-13.08-.358-13.2 3.7-.836-.776-2.747-.776-3.942-.239a3.629 3.629 0 0 0-2.031 2.449c-2.329-.776-5.316 1.015-4.6 2.628.657 1.613 4.181 2.329 6.212 1.374a6.1 6.1 0 0 0 4.181 3.345c2.09.478 4.957 0 5.734-1.433 1.792.179 2.628 1.493 4.061 2.21 2.09 1.195 5.316.836 7.884.179 1.911-.478 4.061-1.613 3.584-2.927 2.628.418 5.853-.179 7.048-1.792 1.2-1.789-.532-4.059-3.224-4.059z" transform="translate(-39.542 -18.638)" style="fill:#d9ddea"/>
    <path data-name="Path 52" d="M485.4 42.854c1.672-.478.478-1.493-1.613-1.792-1.911-.239-3.763.179-5.555 0-1.433-.179-2.867-.776-4.539-.9-4.479-.478-13.02-.179-13.2 1.852a7.354 7.354 0 0 0-3.942-.06 2.745 2.745 0 0 0-2.031 1.254c-2.329-.358-5.316.478-4.6 1.374.657.836 4.181 1.195 6.271.657a6.881 6.881 0 0 0 4.181 1.672c2.21.239 4.957 0 5.734-.657 1.792.06 2.628.776 4.061 1.075 2.09.6 5.316.418 7.884.06 1.911-.239 4.061-.836 3.584-1.493 2.628.239 5.853-.06 7.048-.9 1.26-.888-.591-2.082-3.283-2.142z" transform="translate(-181.305 -23.702)" style="fill:#d9ddea"/>
    <path data-name="Path 53" d="M401.949 60.89a3.008 3.008 0 0 0-1.911-.239 1.886 1.886 0 0 0-1.374 1.374c.179-.478-.6-.836-1.075-.836a3.987 3.987 0 0 0-2.09.418 2.136 2.136 0 0 0-1.254 1.672 1.428 1.428 0 0 0-1.254 1.613 1.347 1.347 0 0 0 .776 1.075 3.119 3.119 0 0 0 1.254.239c.6 0 1.195 0 1.792-.06a3 3 0 0 0 3.882 1.493 2.428 2.428 0 0 0 1.433-1.433c.418.9 1.672 1.015 2.688.836a4.026 4.026 0 0 0 2.031-.776 1.4 1.4 0 0 0 .179-1.911.831.831 0 0 0 .657-1.015v-.119a2 2 0 0 0-.9-1.075 3.053 3.053 0 0 0-3.882.179 1.552 1.552 0 0 0-.952-1.435z" transform="translate(-158.355 -32.003)" style="fill:#d9ddea"/>
    <path data-name="Path 54" d="M325.888 30.93a8.92 8.92 0 0 0 5.136.776 4.472 4.472 0 0 0 3.524-3.464c-.478 1.374 1.493 2.21 3.046 2.21a12.093 12.093 0 0 0 5.614-1.075 5.907 5.907 0 0 0 3.345-4.479 3.771 3.771 0 0 0 1.314-7.107 8.091 8.091 0 0 0-3.345-.6c-1.493 0-3.106.06-4.6.179a7.72 7.72 0 0 0-10.273-3.942 7.929 7.929 0 0 0-3.882 3.763c-1.195-2.329-4.479-2.628-7.048-2.21a9.473 9.473 0 0 0-5.316 2.09c-1.433 1.374-1.792 3.882-.358 5.136-1.374.06-2.09 1.672-1.792 2.927a5.142 5.142 0 0 0 2.449 2.927c3.106 2.031 7.7 2.329 10.094-.418-.715 1.376.718 2.75 2.092 3.287z" transform="translate(-125.389 -12.734)" style="fill:#d9ddea"/>
    <path data-name="Path 55" d="M211.488 42.23a8.92 8.92 0 0 0 5.136.776 4.472 4.472 0 0 0 3.524-3.464c-.478 1.374 1.493 2.21 3.046 2.21a12.093 12.093 0 0 0 5.614-1.075 5.906 5.906 0 0 0 3.345-4.479 3.771 3.771 0 0 0 1.314-7.107 8.092 8.092 0 0 0-3.345-.6c-1.493 0-3.106.06-4.6.179a7.72 7.72 0 0 0-10.273-3.942 7.929 7.929 0 0 0-3.882 3.763c-1.195-2.329-4.479-2.628-7.048-2.21A9.473 9.473 0 0 0 199 28.374c-1.433 1.314-1.792 3.882-.358 5.136-1.374.06-2.09 1.672-1.792 2.927a5.142 5.142 0 0 0 2.449 2.927c3.106 2.031 7.7 2.329 10.094-.418-.772 1.373.781 2.687 2.095 3.284z" transform="translate(-79.253 -17.285)" style="fill:#d9ddea"/>
    <path data-name="Path 56" d="M514.549 89.19a3.008 3.008 0 0 0-1.911-.239 1.886 1.886 0 0 0-1.374 1.374c.179-.478-.6-.836-1.075-.836a3.986 3.986 0 0 0-2.09.418 2.135 2.135 0 0 0-1.254 1.672 1.428 1.428 0 0 0-1.254 1.613 1.347 1.347 0 0 0 .776 1.075 3.119 3.119 0 0 0 1.254.239c.6 0 1.194 0 1.792-.06a3 3 0 0 0 3.882 1.493 2.427 2.427 0 0 0 1.433-1.433c.418.9 1.672 1.015 2.688.836a4.026 4.026 0 0 0 2.031-.776 1.4 1.4 0 0 0 .179-1.911.831.831 0 0 0 .657-1.015v-.06a2 2 0 0 0-.9-1.075 3.053 3.053 0 0 0-3.882.179 1.509 1.509 0 0 0-.952-1.494z" transform="translate(-203.76 -15.881)" style="fill:#d9ddea"/>
    <path data-name="Path 57" d="M35.4 67.265c1.672-.657.478-2.031-1.613-2.449-1.911-.358-3.763.239-5.614-.06-1.433-.239-2.867-1.075-4.479-1.374-4.479-.776-13.08-.239-13.2 2.628a5.95 5.95 0 0 0-3.942-.179A3.024 3.024 0 0 0 4.526 67.5c-2.329-.478-5.316.657-4.6 1.852.657 1.195 4.181 1.613 6.212.9.6 1.015 2.031 1.911 4.181 2.329s4.9 0 5.734-1.015c1.792.06 2.688 1.015 4.061 1.493 2.09.836 5.316.6 7.884.179 1.911-.358 4.061-1.075 3.584-2.031 2.628.358 5.853-.179 7.048-1.254 1.254-1.015-.538-2.688-3.23-2.688z" transform="translate(.181 -33.003)" style="fill:#d9ddea"/>
    <g data-name="Group 86">
        <path data-name="Path 58" d="M222.59 86.4c-1.015-.06-1.852 1.254-1.792 3.046v.354c0 .06.06.358.239.358 1.075.06 2.21.179 3.165.239.06 0 .179-.06.239-.358v-.358c.059-1.789-.836-3.163-1.851-3.281zm.119 1.672a1.091 1.091 0 0 1 1.075 1.254c-.776-.06-1.493-.06-2.27-.179.06-.957.598-1.076 1.195-1.076z" transform="translate(-88.91 -42.401)" style="fill:#425aa5"/>
        <path data-name="Path 59" d="M210.538 85.3c-1.015 0-1.254 1.613-1.075 3.345V89a.428.428 0 0 0 .239.358c1.075 0 2.21.06 3.165.06.06 0 .179-.179.179-.358v-.36c.001-1.728-1.433-3.4-2.508-3.4zm.6 1.493c.6 0 1.195.836 1.254 1.792-.776 0-1.493-.06-2.27-.06 0-1.135.418-1.911 1.015-1.732z" transform="translate(-84.324 -41.96)" style="fill:#425aa5"/>
        <path data-name="Path 60" d="M234.431 88.086c-1.015-.179-2.031.776-2.031 2.449v.358c0 .06.06.358.239.358 1.075.06 2.21.239 3.285.358a.251.251 0 0 0 .239-.239v-.358c-.063-1.672-.717-2.747-1.732-2.926zm-.179.776c.6.06 1.075.836 1.195 1.792-.776-.06-1.493-.179-2.329-.239a1.343 1.343 0 0 1 1.134-1.553z" transform="translate(-93.584 -43.073)" style="fill:#425aa5"/>
        <path data-name="Path 61" d="M201.3 107.7c-1.195 0-2.329 0-3.524.06-.06 0-.179.179-.179.358.06.836.179 1.672.239 2.508a.428.428 0 0 0 .239.358c1.195-.06 2.27-.06 3.464-.06.06 0 .179-.179.179-.358-.06-.836-.179-1.672-.239-2.508.121-.298.003-.358-.179-.358zm0 2.509c-1.015 0-2.031.06-3.046.06-.06-.6-.179-1.254-.179-1.852a26.05 26.05 0 0 0 3.046-.179 11 11 0 0 1 .179 1.971z" transform="translate(-79.569 -50.981)" style="fill:#425aa5"/>
        <path data-name="Path 62" d="M213.858 110.765h3.464c.06 0 .179-.179.179-.358 0-.836-.06-1.613-.06-2.449 0-.179-.06-.358-.239-.358h-3.524c-.06 0-.179.179-.179.358.06.836.06 1.672.179 2.509a.2.2 0 0 0 .18.298zm0-2.568h3.042c0 .6-.06 1.075-.06 1.672-1.015 0-1.852.06-2.867.06a9.689 9.689 0 0 0-.115-1.729z" transform="translate(-85.972 -50.941)" style="fill:#425aa5"/>
        <path data-name="Path 63" d="M229.478 111.627c1.195.06 2.329.179 3.524.239a.251.251 0 0 0 .239-.239c0-.776 0-1.613.06-2.329 0-.179-.06-.358-.179-.358-1.195-.06-2.329-.179-3.524-.239a.251.251 0 0 0-.239.239v2.449c-.12.058-.059.118.119.238zm.179-2.449c1.015.06 1.852 0 2.927.06 0 .6.179 1.433.179 1.911-1.015-.06-2.031-.179-3.106-.239v-1.732z" transform="translate(-92.334 -51.384)" style="fill:#425aa5"/>
        <path data-name="Path 64" d="M244.825 112.527c1.195.06 2.329.239 3.524.358a.251.251 0 0 0 .239-.239c.06-.776.06-1.493.179-2.27a.426.426 0 0 0-.179-.358c-1.195-.179-2.329-.239-3.524-.418a.251.251 0 0 0-.239.239c0 .776-.06 1.613-.06 2.329a.256.256 0 0 0 .06.359zm.358-2.329c1.015.06 2.09.239 3.106.358 0 .6-.06 1.195-.06 1.672-1.015-.06-2.031-.239-3.046-.358v-1.67z" transform="translate(-98.543 -51.746)" style="fill:#425aa5"/>
        <path data-name="Path 65" d="M203.364 129.4c-1.075.06-2.21.06-3.285.179-.06 0-.179.179-.179.239.06.776.179 1.433.179 2.09 0 .179.06.239.239.239 1.075-.06 2.09-.06 3.165-.179.06 0 .179-.179.179-.239-.06-.657-.06-1.374-.179-2.09.117-.06.06-.12-.119-.239zm0 2.15a21.221 21.221 0 0 0-2.747.179c-.06-.478-.179-.836-.239-1.374.9-.06 1.911-.358 2.927-.418a12.528 12.528 0 0 0 .06 1.613z" transform="translate(-80.495 -59.72)" style="fill:#425aa5"/>
        <path data-name="Path 66" d="M214.291 132.009h3.165c.06 0 .239-.179.179-.239v-2.031c0-.179-.06-.239-.179-.239h-3.285c-.06 0-.239.179-.179.239 0 .657 0 1.374.06 2.031 0-.06.119.239.239.239zm.418-2.09h2.628v1.493h-2.867c0-.538.239-1.015.239-1.493z" transform="translate(-86.165 -59.761)" style="fill:#425aa5"/>
        <path data-name="Path 67" d="M229.124 131.928c1.075 0 2.21.06 3.166.06a.182.182 0 0 0 .179-.239c0-.657.06-1.374.06-2.031 0-.179-.06-.239-.179-.239-1.075-.06-2.21-.06-3.285-.179-.179 0-.239.179-.179.239v2.031c-.001.179.059.358.238.358zm.358-2.09c.9 0 1.792.179 2.747.239a12.481 12.481 0 0 1-.06 1.493c-.9 0-1.792.06-2.688 0v-1.732z" transform="translate(-92.159 -59.68)" style="fill:#425aa5"/>
        <path data-name="Path 68" d="M243.787 132.549c1.075.06 2.21.06 3.285.179a.251.251 0 0 0 .239-.239c.06-.657.06-1.254.179-1.911 0-.06-.06-.239-.179-.239-1.075-.06-2.21-.179-3.285-.239a.251.251 0 0 0-.239.239c0 .657-.06 1.374-.06 1.911-.179.06-.119.12.06.299zm.358-1.971 2.867.179c0 .478-.06 1.015-.06 1.433-.9-.06-1.792-.239-2.747-.358a2.97 2.97 0 0 1-.06-1.254z" transform="translate(-98.102 -60.002)" style="fill:#425aa5"/>
        <path data-name="Path 69" d="M205.025 148.4c-1.015.06-2.031.179-3.046.179-.06 0-.179.179-.179.239.06.6.06 1.195.179 1.792a.191.191 0 0 0 .179.179c1.015-.06 2.031-.179 2.927-.179.06 0 .179-.06.179-.239a9.116 9.116 0 0 0-.179-1.792c.115-.179.06-.179-.06-.179zm-.06 1.672c-.836.06-1.792.06-2.628.179l-.06-1.374c.836-.06 1.433.179 2.329.06 0 .6.358.717.358 1.135z" transform="translate(-81.26 -67.372)" style="fill:#425aa5"/>
        <path data-name="Path 70" d="M242.7 149.871c1.015 0 2.031 0 3.046.06a.191.191 0 0 0 .179-.179c.06-.478.06-1.075.179-1.613a.191.191 0 0 0-.179-.179c-1.015 0-2.031-.06-3.106-.06a.191.191 0 0 0-.179.179c0 .6-.06 1.075-.06 1.672-.06-.119-.06.119.119.119zm.418-1.553c.9 0 1.672-.06 2.509-.06 0 .418-.06.836-.06 1.195l-2.688-.06a5.682 5.682 0 0 0 .234-1.075z" transform="translate(-97.668 -67.171)" style="fill:#425aa5"/>
        <path data-name="Path 71" d="M268.8 126.149c1.075.179 2.27.358 3.345.478.179 0 .239-.06.239-.179.06-.6.239-1.254.358-1.911 0-.06 0-.239-.179-.239-1.195-.179-2.27-.418-3.464-.6-.179 0-.239.06-.239.239a9.053 9.053 0 0 1-.358 1.911c-.002.122.117.181.298.301zm.478-1.971 3.046.478c-.06.478-.6 1.195-.657 1.672a21.127 21.127 0 0 0-2.628-.657z" transform="translate(-108.123 -57.425)" style="fill:#425aa5"/>
        <path data-name="Path 72" d="M286.6 129.11c1.075.239 2.27.418 3.345.657.06 0 .239-.06.239-.179l.478-1.672c0-.06 0-.239-.179-.239a59.614 59.614 0 0 1-3.464-.776c-.06 0-.239.06-.239.179-.179.6-.358 1.195-.478 1.792.119.06.119.119.3.239zm.657-1.672c1.015.179 2.09.6 3.106.836-.06.418-.358.657-.478 1.195-1.015-.239-2.031-.358-3.046-.6a6.5 6.5 0 0 0 .418-1.433z" transform="translate(-115.291 -58.714)" style="fill:#425aa5"/>
        <path data-name="Path 73" d="M303.043 132.831c1.075.239 2.27.478 3.464.836.06 0 .239 0 .239-.179l.6-1.613c0-.06 0-.239-.06-.239-1.195-.358-2.329-.6-3.464-.836-.06 0-.239.06-.239.179a17.45 17.45 0 0 1-.6 1.672c-.06-.06 0 0 .06.179zm1.135-1.911c1.015.239 1.792.657 2.747.9l-.418 1.195c-1.015-.239-2.031-.478-3.046-.776.119-.239.538-.9.717-1.314z" transform="translate(-122 -60.284)" style="fill:#425aa5"/>
        <path data-name="Path 74" d="M266.3 142.01c1.075.06 2.09.179 3.165.239.06 0 .239-.06.239-.179.06-.478.239-1.075.358-1.672a.223.223 0 0 0-.179-.239c-1.075-.06-2.21-.239-3.166-.358-.06 0-.239.06-.239.179-.06.6-.179 1.195-.239 1.672-.119.119-.119.179.06.358zm.418-1.672a21.222 21.222 0 0 1 2.747.179 9.566 9.566 0 0 1-.179 1.374c-.9-.06-1.792-.179-2.688-.239.06-.478.06-.9.119-1.314z" transform="translate(-107.181 -63.909)" style="fill:#425aa5"/>
        <path data-name="Path 75" d="m283.8 143.571 3.165.418c.06 0 .239-.06.239-.179a14.42 14.42 0 0 0 .478-1.493.359.359 0 0 0-.06-.239 62.925 62.925 0 0 0-3.285-.478c-.06 0-.239.06-.239.179-.179.478-.239 1.015-.418 1.493-.06.06-.06.119.119.3zm.657-1.613c.9.179 2.27.179 3.165.358-.06.418-.6.836-.776 1.254-.9-.179-1.852-.239-2.747-.418a6.982 6.982 0 0 1 .358-1.195z" transform="translate(-114.22 -64.634)" style="fill:#425aa5"/>
        <path data-name="Path 76" d="M298.433 146.011a84.43 84.43 0 0 0 3.165.478c.06 0 .239 0 .239-.179.179-.418.358-.9.6-1.433 0-.06 0-.179-.06-.179-1.075-.179-2.21-.418-3.285-.6-.06 0-.239.06-.239.179l-.478 1.433c-.06.119-.06.239.06.3zm.776-1.433c.9.179 1.911.358 2.867.478-.179.358-.179.776-.358 1.075-.9-.179-1.911-.358-2.927-.478z" transform="translate(-120.138 -65.641)" style="fill:#425aa4"/>
        <path data-name="Path 77" d="M243.681 99.961a221.074 221.074 0 0 0-31.058-7.884.251.251 0 0 0-.239.239c-.06 1.015-.239 2.031-.358 3.046a.426.426 0 0 0 .179.358l.478.06a10.443 10.443 0 0 1-.179 1.433c-1.911-.358-3.763-.6-5.734-.836.239-2.509.418-5.2.657-8.063l.418.06a.251.251 0 0 0 .239-.239c.06-.776.9-1.672 1.015-2.508l-.6-.6c0-.179-.239.418-.358.358-5.853-5.435-18.455-17.321-21.024-19.65-.239-.239-.179.06-.179.06-7.048 5.555-13.8 10.81-19.829 16.723l-.06.06v.12c.06.9.239 1.911.358 2.867a.428.428 0 0 0 .239.358h.418c.418 3.165.418 6.032.776 8.9-1.852.06-2.867-.179-4.6 0-.06-.6-.657-.6-.776-1.195h.418c.06 0 .179-.179.179-.358-.179-1.195.358-1.911.179-3.106a1.531 1.531 0 0 0-.9-.657c-8.949 1.493-19.04 2.928-29.615 4.78-.06 0-.179.179-.06.418.358 1.195.657 2.27 1.015 3.464a.327.327 0 0 0 .358.239l.418-.06c4.061 13.259 7.048 23.114 9.5 31 0 .06.06.179.239.179 7.645-1.433 15.29-2.628 22.995-3.464 1.672-.179 3.285-.358 4.957-.478 2.21-.179 4.479-.418 6.63-.6 5.614-.418 11.229-.657 16.962-.836 2.329-.06 4.718-.06 7.048-.06h5.013c7.884.06 15.947.478 24.01 1.254a.223.223 0 0 0 .239-.179c2.509-6.271 5.853-13.379 9.138-22.517l.478.179a.4.4 0 0 0 .358-.179c.239-.776.6-1.493.836-2.329.001-.238-.118-.357-.178-.357zM187 66.275c.179.179.239.06.418.179 7.048 6.63 12.662 12.662 18.814 18.4-12.543-2.21-23.532-3.345-35.716-2.927-.478 0-.418-.6-.9-.478A190.378 190.378 0 0 1 187 66.275zm-18.575 16.9a174.3 174.3 0 0 1 39 2.329c-.06.657.418 1.493.358 2.21a10.9 10.9 0 0 1-1.493-.418 172.825 172.825 0 0 0-37.269-2.329h-.6c-.114-.774.065-1.013.005-1.789zm-34.282 11.769c10.094-1.792 19.889-3.285 29.087-4.718.179 1.015.239 1.911.418 2.867h-.538a183 183 0 0 0-27.773 4.479c-.179 0 .478.179.358.179-.178-.951-1.313-1.911-1.552-2.807zm2.807 3.345c7.406-2.329 15.648-3.7 26.22-4.6a12.074 12.074 0 0 0 .358 2.031c1.911 12.662 2.628 21.681 3.763 29.385-7.645.836-14.036 2.688-21.5 4.121-2.51-7.826-4.839-17.559-8.841-30.938zm35.477 25.623c-1.493.179-2.688 1.433-4.181 1.613-1.195-7.645-2.09-17.022-3.942-29.564 1.852-.179 3.285-.239 5.136-.418 1.495 12.481 2.152 20.783 2.988 28.368zm-3.4-37.807a181.292 181.292 0 0 1 37.269 2.329c-.239 2.927.239 6.032 0 8.72-1.015 11.229-2.747 18.993-3.524 26.22-1.792.6-3.584.239-5.853.358v-.9a.191.191 0 0 0-.179-.179c-.9 0-1.852 0-2.747.06v-3.345c0-.9.179-1.911.179-2.927h2.927a.191.191 0 0 0 .179-.179c.06-.836.06-1.792.179-2.688a.32.32 0 0 0-.179-.239c-6.152-.06-12.244 0-18.336.358-.06 0-.179.06-.179.239.06.9.179 1.911.179 2.867a.191.191 0 0 0 .179.179c1.015-.06 2.09-.06 3.165-.179.06 1.015 0 2.27 0 3.166.06 1.195.239 2.21.239 3.285-1.015.06-2.031.179-3.046.179a.191.191 0 0 0-.179.179v.776c0 .06-.657.179-.657.179-2.09.179-3.106-.179-5.2 0-.896-9.492-2.329-20.963-4.42-38.463zm17.44 30.341c1.195 0 2.329-.06 3.464-.06v6.45a30.269 30.269 0 0 0-3.285.179c0-1.195-.179-2.329-.179-3.7-.067-.839.116-1.974-.003-2.87zm7.167 6.212-3.285.06c0-1.015.179-2.449.179-3.524s-.179-1.792-.179-2.927h3.464c-.119 2.27-.119 4.36-.179 6.391zm.418-6.749h-3.882c-1.254 0-2.508.06-3.882.06q-1.881 0-3.763.179c-1.075.06-2.09.06-3.165.179-.06-.776.179-1.493.06-2.329 5.853-.358 10.93-.657 16.9-.6a4.515 4.515 0 0 1 .6 2.449zm-11.348.776c1.195-.06 2.329-.06 3.464-.179v1.672c0 1.672.06 3.285.06 4.778-1.075.06-2.21.06-3.285.179-.06-1.613 0-2.688-.06-4.479.06-.478-.179-1.433-.179-1.971zm24.667-18.993c1.911.239 2.747-.239 4.6 0-1.374 10.751-3.7 18.635-4.6 25.623-1.613 0-1.911.239-3.524.239.776-7.048 2.568-14.693 3.524-25.861zm25.085 26.817c-8-.657-15.648-.657-23.413-.836 1.015-6.988 3.345-15.051 4.778-25.981.06-.6-.06-1.195 0-1.792a190.215 190.215 0 0 1 26.817 6.391c-3.345 9.2-5.793 16.066-8.182 22.218zm10.452-22.7c-.179-.06-.6.358-.776.239a212.912 212.912 0 0 0-29.146-6.869c-.179 0-.179-.9-.358-.9.06-.836.478-.9.6-1.792a207.1 207.1 0 0 1 29.624 7.585c-.179.717.239 1.135.06 1.732z" transform="translate(-53.799 -34.044)" style="fill:#425aa5"/>
        <path data-name="Path 78" d="M178.264 121.2c-1.075.06-2.21.239-3.285.358-.06 0-.179.179-.179.358.179.776.239 1.493.418 2.329a.251.251 0 0 0 .239.239c1.075-.179 2.21-.239 3.285-.358.06 0 .179-.179.179-.358-.06-.776-.239-1.493-.358-2.329 0-.179-.12-.239-.299-.239zm.179 2.389a25.054 25.054 0 0 0-2.867.358 9.525 9.525 0 0 0-.358-1.792c1.015-.06 1.792-.179 2.688-.239a5 5 0 0 1 .538 1.672z" transform="translate(-70.386 -56.418)" style="fill:#425aa5"/>
        <path data-name="Path 79" d="M159.536 126.564c1.075-.179 2.09-.418 3.165-.6.06 0 .179-.179.179-.358l-.478-2.27a.251.251 0 0 0-.239-.239c-1.075.179-2.21.418-3.285.6-.06 0-.179.179-.179.358l.6 2.27c.001.12.177.299.237.239zm-.358-2.21c.9-.179 1.911-.358 2.867-.478.179.6.239 1.195.418 1.672-.9.179-1.613.418-2.509.6a11.616 11.616 0 0 1-.776-1.792z" transform="translate(-63.902 -57.183)" style="fill:#425aa5"/>
        <path data-name="Path 80" d="M142.821 129.924c1.075-.239 2.09-.418 3.165-.657.06 0 .179-.179.06-.358-.179-.776-.418-1.493-.6-2.27a.251.251 0 0 0-.239-.239c-1.075.239-2.21.418-3.285.657-.06 0-.179.179-.06.358l.657 2.27c.063.06.242.239.302.239zm-.239-2.449c.9-.179 1.672-.358 2.628-.478.179.6.179 1.075.358 1.672-.9.179-1.672.418-2.688.6-.239-.6-.119-1.314-.3-1.792z" transform="translate(-57.102 -58.512)" style="fill:#425aa5"/>
        <path data-name="Path 81" d="M181.485 140.092c-1.015.06-2.09.239-3.106.358-.06 0-.179.179-.179.239a15.607 15.607 0 0 0 .358 1.911.251.251 0 0 0 .239.239c1.015-.179 2.031-.239 3.046-.358.06 0 .179-.179.179-.239a10.76 10.76 0 0 0-.358-1.911c.12-.12-.064-.299-.179-.239zm.179 2.031c-.9.06-1.911.06-2.867.179-.06-.478 0-.836-.06-1.374l2.688-.239c.06.418.175.956.239 1.434z" transform="translate(-71.755 -64.022)" style="fill:#425aa5"/>
        <path data-name="Path 82" d="M163.363 145.067c1.015-.179 2.031-.358 3.046-.478.06 0 .179-.179.179-.239a10.953 10.953 0 0 1-.418-1.911.251.251 0 0 0-.239-.239c-1.015.179-2.031.358-3.106.478-.06 0-.179.179-.06.239.179.657.358 1.254.478 1.911-.179.179-.059.239.12.239zM163 143.1c.9-.179 1.672-.358 2.508-.478a14.41 14.41 0 0 0 .478 1.493c-.9.179-1.792.239-2.688.418z" transform="translate(-65.519 -64.876)" style="fill:#425aa5"/>
        <path data-name="Path 83" d="M148.182 147.827c1.015-.179 2.031-.418 3.046-.6.06 0 .179-.179.06-.239a17.869 17.869 0 0 1-.478-1.911c0-.06-.179-.179-.239-.179-1.015.179-2.031.418-3.046.6-.06.06-.179.179-.06.239.179.657.418 1.254.6 1.852-.122.178.058.238.117.238zm-.3-1.911c.9-.179 1.374-.358 2.27-.478.179.478.657.9.776 1.433-.836.179-1.792.358-2.628.478a6.5 6.5 0 0 1-.418-1.433z" transform="translate(-59.357 -65.963)" style="fill:#425aa5"/>
        <path data-name="Path 84" d="M144.54 154.843c-1.852 1.613-4.9.179-6.57-1.433a1.759 1.759 0 0 1-.6-1.075c-.418-2.031 2.508-2.509 2.628-4.3a4.077 4.077 0 0 0-.9-2.09 9.058 9.058 0 0 1-1.015-5.136 17.455 17.455 0 0 1 1.493-5.017c.6-1.374 1.613-2.747 2.927-2.508a2.527 2.527 0 0 1 1.613 2.031 7.772 7.772 0 0 1 .06 3.882 3.183 3.183 0 0 0-.06 1.672c.358 1.433 2.21 1.792 2.747 3.046.657 1.254-.179 2.867-.836 4.121-.657 1.075-1.015 1.792-.6 2.688a1.365 1.365 0 0 0 .418.6c.486.234 1.203 1.309-1.305 3.519z" transform="translate(-55.296 -61.273)" style="fill-rule:evenodd;fill:#ee855a"/>
        <path data-name="Path 85" d="M145.018 139.3c0 .418-.418 24.667-.418 24.667l1.613.179z" transform="translate(-58.224 -63.708)" style="fill:#9c4f60;fill-rule:evenodd"/>
        <path data-name="Path 86" d="M143.285 165.563 140 161.8l3.524 3.524a.376.376 0 0 1 0 .358.238.238 0 0 1-.239-.119z" transform="translate(-56.371 -72.769)" style="fill:#9c4f60;fill-rule:evenodd"/>
        <path data-name="Path 87" d="M143.974 147.867 142.6 145l1.613 2.688c.06.06 0 .179-.06.239 0-.06-.06-.06-.179-.06z" transform="translate(-57.418 -66.003)" style="fill:#9c4f60;fill-rule:evenodd"/>
        <path data-name="Path 88" d="m145.9 156.2 3.166-5.2z" transform="translate(-58.747 -68.42)" style="fill:#9c4f60;fill-rule:evenodd"/>
        <path data-name="Path 89" d="m145.5 156.236 3.345-5.136-3.046 5.375c-.06.06-.179.179-.239.06a.8.8 0 0 1-.06-.299z" transform="translate(-58.586 -68.46)" style="fill:#9c4f60;fill-rule:evenodd"/>
        <path data-name="Path 90" d="M134.709 160.013c-1.433 1.195-3.763.06-5.017-1.075a1.141 1.141 0 0 1-.418-.836c-.358-1.493 1.911-1.911 1.911-3.285a3.55 3.55 0 0 0-.657-1.613 7 7 0 0 1-.776-3.942 12.243 12.243 0 0 1 1.195-3.882c.418-1.015 1.254-2.21 2.27-1.911a2.116 2.116 0 0 1 1.254 1.493 6.867 6.867 0 0 1 .06 2.927 2.97 2.97 0 0 0-.06 1.254c.239 1.075 1.672 1.374 2.21 2.329.478 1.015-.06 2.21-.657 3.165-.478.836-.776 1.374-.478 2.031a.929.929 0 0 0 .358.478c.179.418.776 1.254-1.195 2.867z" transform="translate(-52.036 -65.368)" style="fill:#f2ae47;fill-rule:evenodd"/>
        <path data-name="Path 91" d="M134.778 147.7c0 .358-.478 17.8-.478 17.8l1.374.179z" transform="translate(-54.075 -67.091)" style="fill:#9c4f60;fill-rule:evenodd"/>
        <path data-name="Path 92" d="m135.409 163.206 2.691-3.106-2.927 2.867a.182.182 0 0 0 0 .239c.119.119.179.119.239 0z" transform="translate(-54.408 -72.085)" style="fill:#9c4f60;fill-rule:evenodd"/>
        <path data-name="Path 93" d="M133.975 154.629 132.9 152.3l1.374 2.21v.179c-.179.119-.239.119-.3-.06z" transform="translate(-53.511 -68.943)" style="fill:#9c4f60;fill-rule:evenodd"/>
        <path data-name="Path 94" d="m135.5 161.7 2.628-4.3z" transform="translate(-54.559 -70.997)" style="fill:#9c4f60;fill-rule:evenodd"/>
        <path data-name="Path 95" d="M309.723 154.968c-1.433 1.075-3.7.06-5.017-1.015a.932.932 0 0 1-.418-.776c-.239-1.433 1.911-1.792 1.911-3.046a3.1 3.1 0 0 0-.657-1.493 5.775 5.775 0 0 1-.776-3.584 11.03 11.03 0 0 1 1.195-3.584c.418-.9 1.254-2.031 2.21-1.792a2.024 2.024 0 0 1 1.254 1.433 5.859 5.859 0 0 1 .06 2.688 2.7 2.7 0 0 0-.06 1.195c.239 1.015 1.672 1.254 2.21 2.09.478.9-.06 2.031-.657 2.927-.478.776-.776 1.254-.478 1.852a.631.631 0 0 0 .358.418c.179.358.776 1.194-1.135 2.687z" transform="translate(-122.528 -63.847)" style="fill:#f2ae47;fill-rule:evenodd"/>
        <path data-name="Path 96" d="M309.718 143.5c0 .358-.418 16.365-.418 16.365l1.374.06z" transform="translate(-124.554 -65.399)" style="fill:#9c4f60;fill-rule:evenodd"/>
        <path data-name="Path 97" d="m310.409 157.727 2.691-2.927-2.927 2.688a.182.182 0 0 0 0 .239c.06.06.239.06.239 0z" transform="translate(-124.887 -69.95)" style="fill:#9c4f60;fill-rule:evenodd"/>
        <path data-name="Path 98" d="m308.975 149.91-1.075-2.21 1.374 2.031v.179c-.179.06-.3.06-.3 0z" transform="translate(-123.991 -67.091)" style="fill:#9c4f60;fill-rule:evenodd"/>
        <path data-name="Path 99" d="m310.4 156.342 2.628-3.942z" transform="translate(-124.997 -68.983)" style="fill:#9c4f60;fill-rule:evenodd"/>
        <path data-name="Path 100" d="M300.14 152.891c-1.852 1.433-4.9.179-6.57-1.374a1.614 1.614 0 0 1-.6-1.015c-.418-1.852 2.509-2.27 2.509-3.942a3.184 3.184 0 0 0-.9-1.911 7.729 7.729 0 0 1-1.015-4.718 15.383 15.383 0 0 1 1.493-4.6c.6-1.195 1.613-2.628 2.927-2.27a2.442 2.442 0 0 1 1.613 1.852 7.042 7.042 0 0 1 0 3.524 2.916 2.916 0 0 0-.06 1.613c.358 1.374 2.21 1.613 2.747 2.747.6 1.195-.179 2.688-.836 3.763-.6 1.015-1.015 1.613-.6 2.449a1.366 1.366 0 0 0 .418.6c.606.236 1.382 1.431-1.126 3.282z" transform="translate(-117.962 -61.173)" style="fill-rule:evenodd;fill:#ee855a"/>
        <path data-name="Path 101" d="M300.618 138.6c0 .418-.418 22.756-.418 22.756l1.613.179z" transform="translate(-120.889 -63.426)" style="fill:#9c4f60;fill-rule:evenodd"/>
        <path data-name="Path 102" d="M298.785 162.924 295.5 159.4l3.524 3.165a.182.182 0 0 1 0 .239c0 .119-.119.119-.239.119z" transform="translate(-118.997 -71.803)" style="fill:#9c4f60;fill-rule:evenodd"/>
        <path data-name="Path 103" d="M299.574 146.528 298.2 143.9l1.613 2.509c.06.06 0 .179 0 .239-.119-.06-.179-.06-.239-.119z" transform="translate(-120.084 -65.56)" style="fill:#9c4f60;fill-rule:evenodd"/>
        <path data-name="Path 104" d="m301.4 154.3 3.165-4.9z" transform="translate(-121.373 -67.775)" style="fill:#9c4f60;fill-rule:evenodd"/>
        <path data-name="Path 105" d="m301.166 154.118 3.345-4.718-3.046 4.957a.359.359 0 0 1-.239.06c-.06-.119-.179-.119-.06-.3z" transform="translate(-121.258 -67.775)" style="fill:#9c4f60;fill-rule:evenodd"/>
    </g>
    <g data-name="Group 130">
        <g data-name="Group 94">
            <g data-name="Group 91">
                <path data-name="Path 106" d="M374.343 326.945H258a5.2 5.2 0 0 1-5.2-5.2V224.1a5.2 5.2 0 0 1 5.2-5.2h116.343a5.2 5.2 0 0 1 5.2 5.2v97.593a5.291 5.291 0 0 1-5.2 5.252z" transform="translate(-101.957 -94.712)" style="fill:#f8f8f8"/>
                <path data-name="Path 107" d="M379.479 230.9H252.8v-8.123a3.953 3.953 0 0 1 3.882-3.882H375.6a3.953 3.953 0 0 1 3.882 3.882z" transform="translate(-101.957 -94.712)" style="fill:#96a3d6"/>
                <g data-name="Group 87">
                    <path data-name="Path 108" d="M261.4 227.933a1.433 1.433 0 1 1 1.433 1.433 1.453 1.453 0 0 1-1.433-1.433z" transform="translate(-105.421 -97.773)" style="fill:#dae6ff"/>
                    <path data-name="Path 109" d="M271.5 227.933a1.433 1.433 0 1 1 1.433 1.433 1.415 1.415 0 0 1-1.433-1.433z" transform="translate(-109.489 -97.773)" style="fill:#dae6ff"/>
                    <path data-name="Path 110" d="M281.5 227.933a1.433 1.433 0 1 1 1.433 1.433 1.453 1.453 0 0 1-1.433-1.433z" transform="translate(-113.516 -97.773)" style="fill:#dae6ff"/>
                </g>
                <path data-name="Rectangle 22" transform="translate(160.937 145.689)" style="opacity:.5;fill:#dce1f2" d="M0 0h35.955v35.955H0z"/>
                <path data-name="Path 111" d="M373.823 257.547h-28.549a1.352 1.352 0 0 1-1.374-1.374 1.352 1.352 0 0 1 1.374-1.374h28.549a1.352 1.352 0 0 1 1.374 1.374 1.475 1.475 0 0 1-1.374 1.374z" transform="translate(-138.646 -109.17)" style="fill:#dce1f2"/>
                <path data-name="Path 112" d="M430.923 257.547h-28.549a1.352 1.352 0 0 1-1.374-1.373 1.352 1.352 0 0 1 1.374-1.374h28.549a1.352 1.352 0 0 1 1.374 1.374 1.43 1.43 0 0 1-1.374 1.373z" transform="translate(-161.643 -109.17)" style="fill:#dce1f2"/>
                <g data-name="Group 88" style="opacity:.3">
                    <path data-name="Path 113" d="M379.437 275.672h-34.7a.854.854 0 0 1-.836-.836.854.854 0 0 1 .836-.836h34.7a.854.854 0 0 1 .836.836.784.784 0 0 1-.836.836z" transform="translate(-138.646 -116.903)" style="fill:#dce1f2"/>
                    <path data-name="Path 114" d="M418.774 275.672h-9.138a.854.854 0 0 1-.836-.836.854.854 0 0 1 .836-.836h9.138a.854.854 0 0 1 .836.836.784.784 0 0 1-.836.836z" transform="translate(-164.784 -116.903)" style="fill:#dce1f2"/>
                    <path data-name="Path 115" d="M357.916 284.872h-13.08a.854.854 0 0 1-.836-.836.854.854 0 0 1 .836-.836h13.08a.854.854 0 0 1 .836.836.854.854 0 0 1-.836.836z" transform="translate(-138.686 -120.608)" style="fill:#dce1f2"/>
                    <path data-name="Path 116" d="M390.014 284.872h-17.978a.854.854 0 0 1-.836-.836.854.854 0 0 1 .836-.836h17.978a.854.854 0 0 1 .836.836.784.784 0 0 1-.836.836z" transform="translate(-149.641 -120.608)" style="fill:#dce1f2"/>
                    <path data-name="Path 117" d="M418.774 284.872h-9.138a.854.854 0 0 1-.836-.836.854.854 0 0 1 .836-.836h9.138a.854.854 0 0 1 .836.836.817.817 0 0 1-.836.836z" transform="translate(-164.784 -120.608)" style="fill:#dce1f2"/>
                    <path data-name="Path 118" d="M362.475 292.872h-17.739a.854.854 0 0 1-.836-.836.854.854 0 0 1 .836-.836h17.739a.854.854 0 0 1 .836.836.815.815 0 0 1-.836.836z" transform="translate(-138.646 -123.83)" style="fill:#dce1f2"/>
                    <path data-name="Path 119" d="M411.623 292.872h-29.087a.854.854 0 0 1-.836-.836.854.854 0 0 1 .836-.836h29.087a.854.854 0 0 1 .836.836c.119.418-.299.836-.836.836z" transform="translate(-153.869 -123.83)" style="fill:#dce1f2"/>
                </g>
                <g data-name="Group 89" style="opacity:.3">
                    <path data-name="Path 120" d="M379.437 304.872h-34.7a.854.854 0 0 1-.836-.836.854.854 0 0 1 .836-.836h34.7a.854.854 0 0 1 .836.836.854.854 0 0 1-.836.836z" transform="translate(-138.646 -128.663)" style="fill:#dce1f2"/>
                    <path data-name="Path 121" d="M418.774 304.872h-9.138a.854.854 0 0 1-.836-.836.854.854 0 0 1 .836-.836h9.138a.854.854 0 0 1 .836.836.854.854 0 0 1-.836.836z" transform="translate(-164.784 -128.663)" style="fill:#dce1f2"/>
                    <path data-name="Path 122" d="M357.916 313.972h-13.08a.854.854 0 0 1-.836-.836.854.854 0 0 1 .836-.836h13.08a.854.854 0 0 1 .836.836.9.9 0 0 1-.836.836z" transform="translate(-138.686 -132.328)" style="fill:#dce1f2"/>
                    <path data-name="Path 123" d="M390.014 313.972h-17.978a.854.854 0 0 1-.836-.836.854.854 0 0 1 .836-.836h17.978a.854.854 0 0 1 .836.836.815.815 0 0 1-.836.836z" transform="translate(-149.641 -132.328)" style="fill:#dce1f2"/>
                </g>
            </g>
            <g data-name="Group 93">
                <path data-name="Path 125" d="M447.82 227.708s.478 6.212-.9 6.152c-1.433-.06-4.181-2.867-9.915-2.329-5.614.418-12.6 1.672-16.723-5.734-4.181-7.406 5.375-9.5 5.375-9.5l22.158 11.408z" transform="translate(-168.984 -93.665)" style="fill:#1e3865"/>
                <path data-name="Path 126" d="m429.2 219.518 28.489 2.389.6-1.314-27.295-20.128-27.656-3.165-.538 1.075z" transform="translate(-162.368 -86.013)" style="fill:#25468f"/>
                <g data-name="Group 92">
                    <path data-name="Path 127" d="M477.833 269.959a1.116 1.116 0 1 0-.776 1.374 1.064 1.064 0 0 0 .776-1.374z" transform="translate(-191.711 -114.953)" style="fill:#ff912b"/>
                    <path data-name="Path 128" d="M476.511 270.9c1.194-.06 1.433 10.333 1.433 10.333s-.776.358-1.075.239c-.358-.06-.6-1.493-.6-1.493v1.493a3.906 3.906 0 0 1-1.672-.239s.119-10.153 1.911-10.333z" transform="translate(-191.285 -115.655)" style="fill:#ff912b"/>
                </g>
                <path data-name="Path 129" d="m467.808 248.565-.179-22.7-.179-.179-14.872-10.986-.478.776 14.693 10.87.3 22.218z" transform="translate(-182.223 -93.021)" style="fill:#ff912b"/>
            </g>
        </g>
        <g data-name="Group 108">
            <g data-name="Group 96">
                <g data-name="Group 95">
                    <path data-name="Path 130" d="M353.711 402.8H308.2v-12.6h45.691a5.608 5.608 0 0 1 5.614 5.614v1.195a5.8 5.8 0 0 1-5.794 5.791z" transform="translate(-124.269 -163.76)" style="fill:#ebedf7"/>
                    <path data-name="Path 131" d="M396.2 395.356v1.911a5.019 5.019 0 0 1-.9 2.747 7.333 7.333 0 0 1-5.973 2.747h-84.212a.907.907 0 0 1-1.015-.836v-.239a.945.945 0 0 1 1.015-.836h51.245a9.923 9.923 0 0 1 .776-.836 4.412 4.412 0 0 0 .776-2.449v-2.449a4.547 4.547 0 0 0-.179-1.254 4.715 4.715 0 0 0-1.195-1.852h-51.423a.907.907 0 0 1-1.015-.836v-.239a.945.945 0 0 1 1.015-.836h84.513a6.629 6.629 0 0 1 6.271 3.763 4.429 4.429 0 0 1 .301 1.494z" transform="translate(-122.618 -163.72)" style="fill:#6b7ec6"/>
                    <path data-name="Path 132" d="M395.859 393.963h-38.225a4.714 4.714 0 0 0-1.195-1.851h-51.424a.907.907 0 0 1-1.015-.836v-.239a.945.945 0 0 1 1.015-.836h84.513c3.046-.001 5.614 1.612 6.331 3.762z" transform="translate(-122.578 -163.76)" style="fill:#5d72c0"/>
                </g>
                <path data-name="Path 133" d="m308.2 400.7 6.212.3-6.212.06z" transform="translate(-124.269 -167.989)" style="fill:#f4d2b8"/>
                <path data-name="Path 134" d="m308.2 404.1 14.752.179-14.752.179z" transform="translate(-124.269 -169.358)" style="fill:#f4d2b8"/>
            </g>
            <g data-name="Group 100">
                <g data-name="Group 98">
                    <g data-name="Group 97">
                        <path data-name="Path 135" d="M320.477 421.055h49.035V411.2h-49.394a4.69 4.69 0 0 0-4.718 4.718 5.085 5.085 0 0 0 5.077 5.137z" transform="translate(-127.169 -172.218)" style="fill:#2b478b"/>
                        <path data-name="Path 136" d="M395.957 421.055h55.605V411.2H395.9a4.92 4.92 0 0 0-4.9 4.9 4.983 4.983 0 0 0 4.957 4.955z" transform="translate(-157.616 -172.218)" style="fill:#c0c8e7"/>
                        <path data-name="Path 137" d="M384.392 426.653h66.117a.861.861 0 0 0 .9-.776.861.861 0 0 0-.9-.776h-66.117a.861.861 0 0 0-.9.776c-.056.477.363.776.9.776z" transform="translate(-154.592 -177.816)" style="fill:#2b478b"/>
                        <path data-name="Path 138" d="M384.392 412.653h66.117a.861.861 0 0 0 .9-.776.861.861 0 0 0-.9-.776h-66.117a.861.861 0 0 0-.9.776c-.056.537.363.776.9.776z" transform="translate(-154.592 -172.178)" style="fill:#2b478b"/>
                    </g>
                    <path data-name="Path 139" d="m487.487 419.5-7.287.119 7.287.119z" transform="translate(-193.54 -175.561)" style="fill:#f4d2b8"/>
                    <path data-name="Path 140" d="m480.64 415.7-17.44.119 17.44.179z" transform="translate(-186.694 -174.031)" style="fill:#f4d2b8"/>
                </g>
                <g data-name="Group 99">
                    <path data-name="Path 141" d="M463.5 415.9a2.414 2.414 0 0 1 1.015 1.075c.06.06.06.239.06.418v3.046l2.21-1.015 2.21 1.015v-2.867a2.43 2.43 0 0 0-.478-1.433.767.767 0 0 0-.6-.239z" transform="translate(-186.814 -174.112)" style="fill:#699dee"/>
                    <path data-name="Path 142" d="M463.5 415.819a2.414 2.414 0 0 1 1.015 1.075h4.479a1.52 1.52 0 0 0-1.075-1.195h-4.36v.12z" transform="translate(-186.814 -174.031)" style="fill:#568cdb"/>
                </g>
            </g>
            <g data-name="Group 104">
                <g data-name="Group 102">
                    <g data-name="Group 101">
                        <path data-name="Path 143" d="M386.55 380.634h49.573V366.3h-49.752a6.309 6.309 0 0 0-6.271 6.271v1.613a6.423 6.423 0 0 0 6.45 6.45z" transform="translate(-153.226 -154.135)" style="fill:#ced5ec"/>
                        <path data-name="Path 144" d="M353.668 371.855v3.106a3.5 3.5 0 0 0 2.27 3.106 4.694 4.694 0 0 0 2.27.478h52.977a1.007 1.007 0 0 1 1.075.9v.358a1.007 1.007 0 0 1-1.075.9h-91.56a8.523 8.523 0 0 1-6.391-2.628 5.3 5.3 0 0 1-1.433-3.524v-2.449a4.164 4.164 0 0 1 .776-2.508 7.752 7.752 0 0 1 6.57-3.285h91.978a1.007 1.007 0 0 1 1.075.9v.358a1.007 1.007 0 0 1-1.075.9h-53.157a4.816 4.816 0 0 0-3.165 1.075 3.237 3.237 0 0 0-1.135 2.313z" transform="translate(-125.719 -154.135)" style="fill:#8897d1"/>
                    </g>
                    <path data-name="Path 145" d="m469.309 378.2-6.809.3 6.809.119z" transform="translate(-186.412 -158.928)" style="fill:#3a4d95;opacity:.5"/>
                    <path data-name="Path 146" d="m462.946 372.8-16.246.12 16.246.179z" transform="translate(-180.048 -156.753)" style="fill:#3a4d95;opacity:.5"/>
                </g>
                <g data-name="Group 103">
                    <path data-name="Path 147" d="M447 373a2.94 2.94 0 0 1 1.433 1.195 1.017 1.017 0 0 1 .06.418c.06 1.015 0 3.285 0 3.285l3.106-1.075 3.101 1.077v-3.046a1.651 1.651 0 0 0-.776-1.493 1.341 1.341 0 0 0-.836-.358z" transform="translate(-180.169 -156.833)" style="fill:#b8d0fc"/>
                    <path data-name="Path 148" d="M447 373a2.94 2.94 0 0 1 1.433 1.195l6.271.06a1.742 1.742 0 0 0-1.492-1.255z" transform="translate(-180.169 -156.833)" style="fill:#3a4d95;opacity:.5"/>
                </g>
            </g>
            <g data-name="Group 107">
                <g data-name="Group 105">
                    <path data-name="Path 149" d="M434.488 442.293H388.2V427.6h46.706a6.806 6.806 0 0 1 6.809 6.809v.657a7.139 7.139 0 0 1-7.227 7.227z" transform="translate(-156.488 -178.823)" style="fill:#96a3d6"/>
                    <path data-name="Path 150" d="M355.856 442.293H302.7V427.6h53.276a6.589 6.589 0 0 1 6.57 6.57v1.374a6.546 6.546 0 0 1-6.69 6.749z" transform="translate(-122.054 -178.823)" style="fill:#ced5ec"/>
                    <path data-name="Path 151" d="M364.317 450.79h-65.1a1.007 1.007 0 0 1-1.015-1.015v-.06a1.007 1.007 0 0 1 1.015-1.015h65.1a1.007 1.007 0 0 1 1.015 1.015v.06a1.045 1.045 0 0 1-1.015 1.015z" transform="translate(-120.242 -187.321)" style="fill:#96a3d6"/>
                    <path data-name="Path 152" d="M364.317 429.99h-65.1a1.007 1.007 0 0 1-1.015-1.015v-.06a1.007 1.007 0 0 1 1.015-1.015h65.1a1.007 1.007 0 0 1 1.015 1.015v.06a1.092 1.092 0 0 1-1.015 1.015z" transform="translate(-120.242 -178.944)" style="fill:#96a3d6"/>
                </g>
                <path data-name="Path 153" d="m302.9 440 7.167.239-7.167.179z" transform="translate(-122.135 -183.817)" style="fill:#3a4d95;opacity:.5"/>
                <path data-name="Path 154" d="m302.9 443.8 17.2.239-17.2.179z" transform="translate(-122.135 -185.347)" style="fill:#3a4d95;opacity:.5"/>
                <g data-name="Group 106">
                    <path data-name="Path 155" d="M321.6 439.1a4.285 4.285 0 0 1 2.09 1.613 1.753 1.753 0 0 1 .179.6c.06 1.374 0 4.3 0 4.3l4.718-1.493 4.6 1.493v-4.061a2.482 2.482 0 0 0-1.195-2.031 2.253 2.253 0 0 0-1.254-.418z" transform="translate(-127.277 -183.454)" style="fill:#b8d0fc"/>
                    <path data-name="Path 156" d="M321.9 439.1a4.285 4.285 0 0 1 2.09 1.613l9.317.06a2.509 2.509 0 0 0-2.27-1.672z" transform="translate(-127.577 -183.454)" style="fill:#3a4d95;opacity:.5"/>
                </g>
            </g>
        </g>
        <g data-name="Group 111">
            <g data-name="Group 109">
                <path data-name="Path 157" d="m131.982 327.757-5.614 67.252s-.6 4.121 2.449 4.121h24.846s-3.763-.836-3.7-2.747c.06-2.27 6.63-69.282 6.63-69.282z" transform="translate(-50.765 -135.72)" style="fill:#3a4d95"/>
                <path data-name="Path 158" d="M156.295 396.99c-1.015 0-19.889.06-24.786 0-2.09 0-2.508-1.852-2.508-3.106a7.942 7.942 0 0 1 .06-1.015l.179-1.792.358-4.479.358-3.942.418-5.017.358-4.3 4.061-47.781 24.547-.657s-2.747 28.071-4.718 48.438c-.239 2.27-.418 4.479-.6 6.45-.06.657-.06 1.254-.179 1.911-.179 1.911-.358 3.7-.478 5.316-.06.836-.179 1.613-.179 2.27-.239 2.747-.418 4.539-.418 4.9a1.164 1.164 0 0 0 .06.478c.182 2.266 3.049 2.326 3.467 2.326z" transform="translate(-51.844 -134.834)" style="fill:#3a4d95;opacity:.5"/>
                <path data-name="Path 159" d="m36.1 266.9 13.737 55.307 1.971 7.645 6.391 25.8h119.333L153.82 266.9z" transform="translate(-14.43 -111.475)" style="fill:#dce1f2"/>
                <path data-name="Path 160" d="m34.771 266.9-1.971.538 21.5 90.127 2.568-1.911z" transform="translate(-13.101 -111.475)" style="fill:#3a4d95"/>
                <path data-name="Path 161" d="M68.8 417.411h118.616l3.284-1.911H71.368z" transform="translate(-27.6 -171.322)" style="fill:#3a4d95"/>
                <path data-name="Rectangle 23" transform="translate(82.83 262.156)" style="fill:#3a4d95;opacity:.5" d="M0 0h25.682v1.254H0z"/>
                <path data-name="Path 162" d="m171.38 338.213-19.053-70.178-115.927.119-.3-1.254h117.72l18.993 71.313z" transform="translate(-14.43 -111.475)" style="fill:#3a4d95;opacity:.5"/>
                <path data-name="Path 163" d="m154.309 418.7-.179.956-24.13 4.897.358-4 .179-1.852z" transform="translate(-52.247 -172.611)" style="fill:#354687"/>
                <path data-name="Path 164" d="M156.295 440.445c-1.015 0-19.889.06-24.786 0-2.09 0-2.508-1.852-2.508-3.106l24.01-4.539c-.239 2.747-.418 4.539-.418 4.9a1.164 1.164 0 0 0 .06.478c.357 2.207 3.224 2.267 3.642 2.267z" transform="translate(-51.844 -178.289)" style="fill:#354687"/>
                <path data-name="Path 165" d="M36.1 266.9h117.72l18.993 71.313H53.9z" transform="translate(-14.43 -111.475)" style="fill:#3a4d95;opacity:.5"/>
            </g>
            <path data-name="Path 166" d="M173.925 399.366a4 4 0 0 0-3.763-3.165 2.487 2.487 0 0 0-2.509 3.165 4 4 0 0 0 3.763 3.165 2.533 2.533 0 0 0 2.509-3.165z" transform="translate(-67.384 -163.549)" style="fill:#3a4d95;opacity:.5"/>
            <path data-name="Path 167" d="M170.64 337.645H60.446L47.9 287.893l-.9-3.763-.836-3.285L44.2 273.2h108.7l2.09 7.645.956 3.285 1.015 3.763z" transform="translate(-17.692 -114.012)" style="fill:#e9ecf4"/>
            <path data-name="Path 168" d="M154.992 280.845H46.171L44.2 273.2h108.7z" transform="translate(-17.692 -114.012)" style="fill:#b2bce1"/>
            <g data-name="Group 110">
                <path data-name="Path 169" d="M51.769 278.4c-.179-.478.179-.9.776-.9a1.356 1.356 0 0 1 1.195.9c.179.478-.179.9-.776.9a1.156 1.156 0 0 1-1.195-.9z" transform="translate(-20.722 -115.744)" style="fill:#e9f3fe"/>
                <path data-name="Path 170" d="M57.169 278.4c-.179-.478.179-.9.776-.9a1.356 1.356 0 0 1 1.195.9c.179.478-.179.9-.776.9a1.043 1.043 0 0 1-1.195-.9z" transform="translate(-22.896 -115.744)" style="fill:#e9f3fe"/>
                <path data-name="Path 171" d="M62.769 278.4c-.179-.478.179-.9.776-.9a1.356 1.356 0 0 1 1.195.9c.179.478-.179.9-.776.9a1.2 1.2 0 0 1-1.195-.9z" transform="translate(-25.152 -115.744)" style="fill:#e9f3fe"/>
            </g>
        </g>
        <g data-name="Group 112">
            <path data-name="Path 172" d="M75.3 365.742a4.125 4.125 0 1 1 4.121 3.942 4.017 4.017 0 0 1-4.121-3.942z" transform="translate(-27.828 -148.68)" style="fill:#3a4e95"/>
            <path data-name="Path 173" d="m81.076 364.4 2.329 2.031a.469.469 0 0 1 0 .657L81.076 369a.466.466 0 0 1-.776-.358v-4.061a.457.457 0 0 1 .776-.181z" transform="translate(-29.842 -149.664)" style="fill:#e9f3fe"/>
            <path data-name="Path 174" d="M179.928 368.576c0 .179-.06.418-.239.478a.714.714 0 0 1-.478.239H95.176a.791.791 0 0 1-.776-.776c0-.179.06-.418.239-.478a.714.714 0 0 1 .478-.239h83.975a.8.8 0 0 1 .836.776z" transform="translate(-35.52 -151.096)" style="fill:#ced5ec"/>
            <path data-name="Path 175" d="M104.494 367.8v1.493h-9.318a.791.791 0 0 1-.776-.776c0-.179.06-.418.239-.478a.714.714 0 0 1 .478-.239h9.377z" transform="translate(-35.52 -151.096)" style="fill:#3a4e95"/>
        </g>
        <path data-name="Path 176" d="M163.7 331.462H90.651l-8.183-29.922-.717-2.27-.478-1.911L79.9 292.7h72.03l1.433 4.659.538 1.911.717 2.27z" transform="translate(-29.681 -120.851)" style="fill:#ced5ec"/>
        <g data-name="Group 114">
            <path data-name="Path 177" d="M182.974 311.981H158.9l-2.688-9.855-.119-.717-.179-.717-.414-1.492h23.592l.478 1.493.179.717.239.717z" transform="translate(-61.994 -122.274)" style="fill:#b2bce1"/>
            <g data-name="Group 113">
                <path data-name="Path 178" d="M171.356 313.52h-8.3l-.9-3.464-.119-.239-.06-.239-.179-.478h8.242l.179.478.06.239.06.239z" transform="translate(-64.531 -126.261)" style="fill:#dce1f2;opacity:.6"/>
                <path data-name="Path 179" d="M189.137 313.52h-8.3l-.9-3.464-.119-.239-.06-.239-.06-.478h8.123l.179.478.06.239.119.239z" transform="translate(-71.74 -126.261)" style="fill:#dce1f2;opacity:.6"/>
                <path data-name="Path 180" d="M175.169 301.978h-15.23a.251.251 0 0 1-.239-.239.251.251 0 0 1 .239-.239h15.23a.251.251 0 0 1 .239.239.219.219 0 0 1-.239.239z" transform="translate(-63.685 -123.2)" style="fill:#dce1f2"/>
                <path data-name="Path 181" d="M176.069 303.978h-15.23a.251.251 0 0 1-.239-.239.251.251 0 0 1 .239-.239h15.23a.251.251 0 0 1 .239.239c-.06.119-.119.239-.239.239z" transform="translate(-64.047 -124.005)" style="fill:#dce1f2"/>
                <path data-name="Path 281" d="M179.18 306.778h-17.141c-.179 0-.239-.06-.239-.239s.06-.239.239-.239h17.141c.179 0 .239.06.239.239a.219.219 0 0 1-.239.239z" transform="translate(-64.532 -125.133)" style="fill:#dce1f2"/>
            </g>
        </g>
        <g data-name="Group 116">
            <path data-name="Path 183" d="M190.434 337.622h-24.01l-2.747-9.855-.179-.717-.179-.6-.419-1.55h23.711l.418 1.553.179.6.239.717z" transform="translate(-64.979 -132.624)" style="fill:#b2bce1"/>
            <g data-name="Group 115">
                <path data-name="Path 184" d="M178.9 339.16h-8.3l-.956-3.345-.06-.239v-.3l-.179-.478h8.123l.179.478.119.3.06.239z" transform="translate(-67.597 -136.611)" style="fill:#dce1f2;opacity:.6"/>
                <path data-name="Path 185" d="M196.656 339.16h-8.3l-1.015-3.345-.06-.239v-.3l-.179-.478h8.242l.179.478v.3l.06.239z" transform="translate(-74.725 -136.611)" style="fill:#dce1f2;opacity:.6"/>
                <path data-name="Path 186" d="M182.769 327.678h-15.23a.251.251 0 0 1-.239-.239.251.251 0 0 1 .239-.239h15.23a.251.251 0 0 1 .239.239c-.119.179-.179.239-.239.239z" transform="translate(-66.751 -133.55)" style="fill:#dce1f2"/>
                <path data-name="Path 187" d="M183.569 329.678h-15.23a.251.251 0 0 1-.239-.239.251.251 0 0 1 .239-.239h15.23a.251.251 0 0 1 .239.239c0 .179-.06.239-.239.239z" transform="translate(-67.073 -134.355)" style="fill:#dce1f2"/>
                <path data-name="Path 188" d="M184.269 331.678h-15.23a.251.251 0 0 1-.239-.239.251.251 0 0 1 .239-.239h15.23a.251.251 0 0 1 .239.239.219.219 0 0 1-.239.239z" transform="translate(-67.355 -135.161)" style="fill:#dce1f2"/>
            </g>
        </g>
        <path data-name="Path 189" d="m282.093 432.8-1.493 5.518 4.22.454 1.753-5.388z" transform="translate(-113.515 -178.469)" style="fill:#ffc9a6"/>
        <path data-name="Path 190" d="m305.273 418.86-3.984-3.06-1.79 3.175 3.7 3.233z" transform="translate(-119.624 -170.537)" style="fill:#ffc9a6"/>
        <g data-name="Group 127">
            <g data-name="Group 119">
                <g data-name="Group 118" style="clip-path:url(#l5ij47abqa)" transform="translate(47.83 171.849)">
                    <path data-name="Path 191" d="M122.687 297.8c1.911 0 3.7 1.015 3.882 2.031.179.9-.418 2.449 0 3.285.418.776 2.031 2.329 1.254 4.121-.418 1.015-2.21 1.254-3.942 1.015-1.254-.179-2.508-.657-2.927-1.613-.9-2.329-3.106-4.479-2.867-5.734.239-1.075 1.613-1.254 1.613-1.254s-.059-1.851 2.987-1.851z" transform="translate(-95.272 -294.754)" style="fill:#181818"/>
                    <path data-name="Path 192" d="M129.095 316.059a3.172 3.172 0 0 1-1.075-.06 5.934 5.934 0 0 0-1.672-.239c-1.075.06-2.449.9-2.747.836.059-1.314 4.658-1.612 5.494-.537z" transform="translate(-97.5 -301.844)" style="fill:#516da1"/>
                    <path data-name="Path 193" d="M128.17 316.149a1.764 1.764 0 0 1 .358.179s.06.358.179.358a1.991 1.991 0 0 1 0 .6c-.06.358.06.418.06.836a3.064 3.064 0 0 1-.06.6c-.06.6-.06.657-.179.836-.06.179-.239.179-.418.179s-.239-.06-.478-.418c-.358-.358-.6-.776-.9-1.075-.239-.358-.358-.418-.418-.6a3.166 3.166 0 0 0-.358-.6.359.359 0 0 1-.06-.239.426.426 0 0 1 .179-.358.681.681 0 0 1 .358-.179c.662-.119 1.438-.298 1.737-.119z" transform="translate(-98.426 -302.113)" style="fill:#faddbe"/>
                    <path data-name="Path 194" d="m124.975 317.938 1.374.9 1.195 1.194a3.614 3.614 0 0 0 .239-1.433l.6-1.194 2.031 1.075 2.449 12c-3.165.836-1.852.418-5.2.657L123.9 319.49z" transform="translate(-97.62 -302.648)" style="fill:#f2f2f2;fill-rule:evenodd"/>
                    <path data-name="Path 195" d="m147.215 389.679.179 1.015.119 1.254-1.075-.239-.06-.9-.178-1.309z" transform="translate(-106.602 -331.685)" style="fill:#faddbe"/>
                    <path data-name="Path 196" d="M147.417 392.867c.179 0 .179-.179.358-.239.358-.179.657.418 1.493.776.418.179.657.06 1.015.418a1.354 1.354 0 0 1 .418.657c-.06.239-.9.239-3.882-.478-.06 0-.06 0-.06-.06 0-.239-.06-.6-.06-.836v-.836c0-.06 0-.06.06 0a.939.939 0 0 0 .658.598z" transform="translate(-106.803 -332.783)" style="fill:#121216;fill-rule:evenodd"/>
                    <path data-name="Path 197" d="m138.256 388.5.06.9.179 1.195-1.075-.3-.119-.836V388.2z" transform="translate(-103.017 -331.161)" style="fill:#faddbe"/>
                    <path data-name="Path 198" d="M138.217 391.417c.179 0 .179-.179.358-.179.358-.06.6.418 1.433.776.478.239.657.179.9.418a1.354 1.354 0 0 1 .418.657c-.06.239-.836.239-3.7-.657a.059.059 0 0 1-.06-.06c0-.239-.06-.6-.06-.836a3.673 3.673 0 0 1 .06-.776v-.06l.06.06c.113.298.352.657.591.657z" transform="translate(-103.098 -332.168)" style="fill:#121216;fill-rule:evenodd"/>
                    <path data-name="Path 199" d="M138 348.212c.478 3.7.776 7.406 1.195 11.109.418 4.479.358 8.72.657 13.2l-2.628-.478-2.508-13.02-1.911-7.466-.478-1.672c0 1.075.06 2.27.179 3.464.478 3.165 1.075 6.211 1.075 6.211s.418 8.541.836 12.244a35.253 35.253 0 0 1-2.449-.478l-2.746-12.126-3.584-12.542a5.928 5.928 0 0 1-.179-.9 6.342 6.342 0 0 1-.06-.9c0-.358.179-.358.179-.776 0-.657 0-1.433.06-2.09l9.437.179 1.493 1.075c.418.776.657 1.493 1.015 2.27.117.844.3 1.74.417 2.696z" transform="translate(-98.225 -312.555)" style="fill:#061733"/>
                    <path data-name="Path 200" d="M121 317.713a6.263 6.263 0 0 1 2.21-1.194c.478.657 3.524 6.809 4.181 7.287.358-.418 0-3.584.239-4.778a5.836 5.836 0 0 0-.418-2.927 8.818 8.818 0 0 1 2.628.657c.358.179 1.852 3.165 2.628 5.793a7.6 7.6 0 0 1 .418 2.27 12.78 12.78 0 0 0 .358 3.942l.06.358 3.046 5.136a6.489 6.489 0 0 1-2.329.657s-.657.06-3.165.358l-.836-1.792-.836-1.792-.06 1.792v1.672a11.713 11.713 0 0 1-5.734-1.015c.06-.657.776-5.137.776-5.137v-.179a34.242 34.242 0 0 0-1.493-5.2 7 7 0 0 1-.478-1.493 6.406 6.406 0 0 0-1.195-4.415z" transform="translate(-96.453 -302.124)" style="fill:#3a4e95"/>
                    <path data-name="Path 201" d="m131.975 316.279.478 1.195c.06.06 0 .239-.06.358l-.657.239c0 .06-.06.179-.06.239l.657 1.075a.647.647 0 0 1-.06.358c-.06.06-.418 4.36-.836 4.6a.451.451 0 0 1-.478-.06c.239-.418-.179-3.345.179-4.3a10.945 10.945 0 0 0-.239-3.882 1.164 1.164 0 0 1 .478.06 2.091 2.091 0 0 0 .598.118z" transform="translate(-100.44 -302.124)" style="fill:#516da1"/>
                    <path data-name="Path 202" d="M123.9 318.033a.84.84 0 0 0 .358.418l.776.06c.06.06.179.06.179.179l.358 1.195c0 .179.06.239.239.358.179.06 1.911 3.942 2.449 4.121a.647.647 0 0 1 .358.06c-.179-.06-1.613-4.061-2.508-5.136-.776-1.015-1.852-2.508-1.911-2.688a2.008 2.008 0 0 0-.6.239z" transform="translate(-97.5 -302.325)" style="fill:#516da1"/>
                    <path data-name="Path 203" d="M133.9 316.825c0-.06.06-.179.179-.06h.06l1.195.418a5.233 5.233 0 0 1 2.449 1.194c.358.478 5.435 7.7 5.973 8.72a1.85 1.85 0 0 1-.06 1.493 1.307 1.307 0 0 1-.836.478 2.613 2.613 0 0 1-1.015-.478l-2.747-2.747-2.449-2.747a.359.359 0 0 1-.06-.239.058.058 0 0 1 .06-.06c.179 0 .358 0 .239-.06-.06-.06-.358.239-.418-.418 0-.179.179-1.195.06-1.075l.06.836c0 .06-.179 0-.179 0a7.784 7.784 0 0 0-1.195-.9.376.376 0 0 0-.358 0c0 .06-.06.179-.179.06h-.06a28.96 28.96 0 0 1-.719-4.415z" transform="translate(-101.648 -302.372)" style="fill:#3a4e95"/>
                    <path data-name="Path 204" d="M119.27 317.479h.179l-.06-.179a3.141 3.141 0 0 0-1.015.239c-.657.179-2.031.6-2.27 1.075s-2.27 5.614-2.509 6.57a2.165 2.165 0 0 0 .776 1.493c.06.06.478.418.6.358s1.493-.418 1.613-.478l1.195-1.852 1.075-1.195c.06-.06.478-.06.6-.179.06-.06.179-1.852.179-1.792.06.06.179.179.179.06h.06c.234-.058-.005-1.731-.602-4.12z" transform="translate(-93.468 -302.607)" style="fill:#3a4e95"/>
                    <path data-name="Path 205" d="M152.057 316.662h-.418a1.726 1.726 0 0 0-.239.836c0 .179.418 1.075.418 1.374a1.951 1.951 0 0 0 0 .836c.06.239.9.657 1.195.478.239-.179.06-.6.239-.836a5.317 5.317 0 0 0 .478-2.09c-.06-.179-.239-.358-.418-.239 0 0-.179-.358-.418-.358a.328.328 0 0 0-.358-.239 10.529 10.529 0 0 0 0-1.374.059.059 0 0 0-.06-.06h-.06c-.116-.18-.359 1.254-.359 1.672z" transform="translate(-108.696 -301.671)" style="fill:#faddbe"/>
                    <path data-name="Path 206" d="M152.531 318.6s0 .239-.06.239-.239 0-.179.179c0 .179.239.657.239.776 0 .06.239 0 .06-.239-.06-.179-.358-.358-.179-.418.179-.119.358-.358.119-.537z" transform="translate(-109.05 -303.131)" style="fill:#edcaa8"/>
                    <path data-name="Path 207" d="m121.758 339.4-.358.657 1.852 1.374.836-.06c.06 0 .179 0 .179-.06l.239-.478a.888.888 0 0 0-.06-.358l-.478-.358.06-.179-.179-.358z" transform="translate(-96.614 -311.508)" style="fill:#faddbe"/>
                    <path data-name="Path 208" d="M151.741 322.967a1.9 1.9 0 0 0-1.195-.6 3.242 3.242 0 0 0-1.075 0c-.776 2.329-1.613 4.718-2.329 7.048a1.753 1.753 0 0 0 .179 1.433 1.223 1.223 0 0 0 .478.478c.358.239.9-.06 1.254-.358a3.131 3.131 0 0 0 .6-.657 6.1 6.1 0 0 0 .478-1.374 22.436 22.436 0 0 1 1.015-2.927c.177-.773.416-1.789.595-3.043z" transform="translate(-106.946 -304.631)" style="fill:#3a4e95"/>
                    <path data-name="Path 209" d="m131.011 316.157.418.6c.06.06.06.179.179.358l.358.9c-1.672-.836-1.433-1.075-2.031-.239.239-1.254.06-2.09-.776-2.031l-.06-.239a2.493 2.493 0 0 1 1.374.358z" transform="translate(-99.715 -301.883)" style="fill:#f2f2f2;fill-rule:evenodd"/>
                    <path data-name="Path 210" d="M124.1 316.536c.179-.358 1.015-.657 1.433-.836l.179.358c-.776.239-.358 1.075.657 2.09-1.433-.657-.657-.657-1.613.6l-.418-1.075c0-.06-.06-.179-.06-.239z" transform="translate(-97.701 -301.963)" style="fill:#f2f2f2;fill-rule:evenodd"/>
                    <path data-name="Path 211" d="M125.1 311.6s.6 2.27.657 2.927a1.485 1.485 0 0 0 1.254.6.737.737 0 0 0 .776-.776c-.418-.9-.836-1.792-1.195-2.688z" transform="translate(-98.104 -300.312)" style="fill:#faddbe"/>
                    <path data-name="Path 212" d="M123.077 299.788s2.031-.239 2.867 1.015a19.3 19.3 0 0 1 1.613 3.763c.6 1.433 1.792 2.927 0 3.763s-4.539-.358-5.555-2.27-2.867-5.853 1.075-6.271z" transform="translate(-96.319 -295.547)" style="fill:#faddbe"/>
                    <path data-name="Path 213" d="M129.978 307.914a.058.058 0 0 1-.06.06.376.376 0 0 1-.478-.179 1.212 1.212 0 0 1-.358-1.194c.06.239.358.418.478.6.179.06.239.239.418.358 0 .176.06.236 0 .355z" transform="translate(-99.697 -298.298)" style="fill:#edcaa8"/>
                    <path data-name="Path 214" d="M127.9 310.658a2.184 2.184 0 0 0 2.031-.358.906.906 0 0 1-.179.776c-.179.239-.418.239-.776.239-.3 0-.718-.358-1.076-.657z" transform="translate(-99.231 -299.788)" style="fill:#edcaa8"/>
                    <path data-name="Path 215" d="M121.036 301.3a16.011 16.011 0 0 0 .657 3.285 6.064 6.064 0 0 0 5.375 4.539 4.881 4.881 0 0 1-5.136-2.449c-.717-1.493-1.912-4.001-.896-5.375z" transform="translate(-96.309 -296.164)" style="fill:#edcaa8"/>
                    <path data-name="Path 216" d="M122.826 299.385a4.753 4.753 0 0 1 2.031.239s1.195 5.375-2.747 6.869a2.642 2.642 0 0 1-.478-.9c-1.076-1.967-2.748-5.793 1.194-6.208z" transform="translate(-96.188 -295.384)" style="fill:#181818"/>
                    <path data-name="Path 217" d="M124.5 301.618a4.041 4.041 0 0 1-.776 3.285c-1.374 1.374-2.508-.06-2.628-1.433a3.061 3.061 0 0 1 .836-2.27s-.358 2.628.358 2.927c.781.473 2.21-2.509 2.21-2.509z" transform="translate(-96.493 -296.123)" style="fill:#1b1c1c"/>
                    <path data-name="Path 218" d="M148.161 330.9q.09.09 0 .358c0 .418.06.478 0 .657a.414.414 0 0 1-.179.239c-.06 0 0-.06.06-.239a2.449 2.449 0 0 0-.06-.657c0-.179-.06-.239 0-.358h.179z" transform="translate(-107.309 -308.085)" style="fill:#324580"/>
                    <path data-name="Path 219" d="M134.592 317.078a6.65 6.65 0 0 0-1.792-.478v.06a3.3 3.3 0 0 1 1.792.418 12.309 12.309 0 0 1 1.433.478c.358.179.6.358.9.478.418.179 4.539 6.271 4.957 7.048-.418-.418-4.539-6.809-4.957-6.988a4.267 4.267 0 0 0-.9-.478 4.686 4.686 0 0 0-1.433-.538z" transform="translate(-101.205 -302.325)" style="fill:#516da1"/>
                    <path data-name="Path 220" d="M148.4 327.357a36.58 36.58 0 0 0 1.374-3.584 7.094 7.094 0 0 1 .418-1.374v.06c0 .06-.239.657-.418 1.374-.418 1.076-1.374 3.467-1.374 3.524z" transform="translate(-107.488 -304.661)" style="fill:#516da1"/>
                    <path data-name="Path 221" d="M118.638 336.728c.179 0 0-.06.418-.239a6.46 6.46 0 0 0 .657-1.075c-1.075-1.433-2.628-3.763-3.7-5.136a2.489 2.489 0 0 0-1.075-.478c-.06 0-.776.418-.9.418-.179 0-.239.418-.239.776a.856.856 0 0 0 .239.6c.179.239.358.478.6.836a21.691 21.691 0 0 0 1.433 1.792c.357.296 1.97 1.909 2.567 2.506z" transform="translate(-93.553 -307.642)" style="fill:#3a4e95"/>
                    <path data-name="Path 222" d="M117.463 318.2c.179 0 .358-.06.358-.179a5.629 5.629 0 0 1 1.792-.418v.06a6.5 6.5 0 0 0-1.792.418l-.358.119a9 9 0 0 0-1.015.6 11.623 11.623 0 0 0-1.493 3.584c-.358.9-1.075 3.165-1.254 3.345.179-.239.776-2.09 1.254-3.345a30.139 30.139 0 0 1 1.433-3.584c.418-.244.776-.424 1.075-.6z" transform="translate(-93.513 -302.728)" style="fill:#516da1"/>
                    <path data-name="Path 223" d="M118.838 337.292v-.06a35.329 35.329 0 0 1-2.747-2.867 15.331 15.331 0 0 1-1.672-2.21 2.379 2.379 0 0 1-.418-.9v-.06a2.157 2.157 0 0 0 .418.9c.478.776 1.195 1.493 1.792 2.27a33.607 33.607 0 0 0 2.627 2.927z" transform="translate(-93.633 -308.205)" style="fill:#516da1"/>
                    <path data-name="Path 225" d="M131.763 331.36a.376.376 0 0 1 0 .358c-.06.179-.358.06-.418 0l-.06-.06c-.06-.179 0-.358.179-.358a2.588 2.588 0 0 1 .3.06z" transform="translate(-100.586 -308.246)" style="fill:#516da1"/>
                    <path data-name="Path 226" d="M133.051 336.233a.376.376 0 0 1 0 .358c-.06.179-.358.06-.418 0l-.06-.06c-.06-.179-.06-.239.06-.358a.354.354 0 0 1 .418.06z" transform="translate(-101.098 -310.193)" style="fill:#516da1"/>
                    <path data-name="Path 227" d="M129.2 305.539s.358.418.6.418c.358-.06.239-.657.239-.657s-.06.478-.358.478a.543.543 0 0 1-.481-.239z" transform="translate(-99.755 -297.775)" style="fill:#282f39"/>
                </g>
            </g>
            <g data-name="Group 126">
                <g data-name="Group 125" style="clip-path:url(#l5ij47abqa)" transform="translate(47.83 171.849)">
                    <path data-name="Path 229" d="M757.085 319.123s.9-1.852 1.792-1.911c.836-.06 2.09-.6 2.21 0 .06.6-2.867 3.882-3.524 3.046s-.478-1.135-.478-1.135z" transform="translate(-352.619 -302.459)" style="fill:#ffb27d"/>
                    <path data-name="Path 230" d="M726.7 316.9a52.072 52.072 0 0 0 3.165 9.078c.478 1.075 5.614 4.181 5.973 4.36 3.162 2.33 3.162-1.075 3.162-1.075.179-2.27-6.63-10.93-6.809-11.169a4.431 4.431 0 0 0-2.329-.9 19.216 19.216 0 0 0-3.162-.294z" transform="translate(-340.391 -302.446)" style="fill:#bc3f3f"/>
                    <path data-name="Path 231" d="M712.676 423.405a4.728 4.728 0 0 1 .6 2.09.462.462 0 0 1-.418.478h-3.763a.61.61 0 0 1-.6-.657 5.112 5.112 0 0 1 1.374-2.449c1.131-1.015 2.807.538 2.807.538z" transform="translate(-333.056 -344.985)" style="fill:#163560"/>
                    <path data-name="Path 232" d="M725.6 421.546s.239 3.524.9 3.584h7.824a1.435 1.435 0 0 0-1.374-1.254c-1.254-.239-3.345-1.075-4.121-2.747-.78-1.793-3.229.417-3.229.417z" transform="translate(-339.948 -344.14)" style="fill:#163560"/>
                    <g data-name="Group 120">
                        <path data-name="Path 233" d="M720.767 373.175a16.6 16.6 0 0 1 0 4.3c-.9 3.285 1.613 18.157 1.613 18.157 1.852.9 4.539 0 4.539 0-.179-2.09.836-20.486 1.792-31.774.418-4.718.657-8 .657-8L718.2 354.6c-.06-.06 2.09 11.766 2.567 18.575z" transform="translate(-336.966 -317.629)" style="fill:#e58638"/>
                        <path data-name="Path 234" d="M718.1 354.5s2.091 11.826 2.688 18.635l7.824-9.317c.418-4.718.657-8 .657-8z" transform="translate(-336.927 -317.589)" style="fill:#e58638"/>
                    </g>
                    <path data-name="Path 235" d="M719.9 357.673s-5.614 32.849-6.63 39.24a7 7 0 0 1-4.3-.358s-.239-15.29.418-19.829c.776-4.6-.418-18.814.776-20.187 1.256-1.314 9.736 1.134 9.736 1.134z" transform="translate(-333.234 -318.254)" style="fill:#ee9849"/>
                    <path data-name="Path 236" d="M722.964 311.73a19.938 19.938 0 0 1 .239 3.763c-.179.836-3.106 1.374-4.3.6s-.836-1.374-.836-1.374a22.322 22.322 0 0 1 .358-3.165c.175-.243 4.539.176 4.539.176z" transform="translate(-336.893 -300.262)" style="fill:#ffb27d"/>
                    <path data-name="Path 237" d="M726.708 342.3s-1.792 1.613-7.287 1.613a28.993 28.993 0 0 1-6.63-.6 16.924 16.924 0 0 1-1.672-.418 7.747 7.747 0 0 1-1.195-.418c-.418 0 .478-9.437.358-10.691a31.153 31.153 0 0 1 0-8.242v-.239c1.075-6.032 4.36-6.271 4.36-6.212 0 .836 1.792 1.613 3.165 1.493a2.148 2.148 0 0 0 2.031-1.493s.418.06 1.015.179c3.046.478 4.778 5.017 4.778 10.99.061 6.453 1.435 14.038 1.077 14.038z" transform="translate(-333.59 -302.522)" style="fill:#bc3f3f"/>
                    <path data-name="Path 238" d="M715.917 338.251a11.043 11.043 0 0 1-4.9 8.839 7.753 7.753 0 0 1-1.195-.418c-.418 0 .478-9.437.358-10.691a31.148 31.148 0 0 1 0-8.242l.239-.239s5.681 4 5.498 10.751z" transform="translate(-333.549 -306.715)" style="fill:#a02e2e"/>
                    <path data-name="Path 239" d="M723.078 312.4s-1.075 1.613-2.329 1.613c-1.194 0-2.449-1.613-2.449-1.613z" transform="translate(-337.008 -300.634)" style="fill:#e8945b"/>
                    <path data-name="Path 240" d="M722.641 308a9.946 9.946 0 0 1-1.613.836 1.821 1.821 0 0 1-1.374 0 13.615 13.615 0 0 1-1.911-.776c-.6-.358-.6-1.075-.6-2.09a15.025 15.025 0 0 1 0-2.867c.179-.836.657-1.254 2.21-1.433 2.688-.239 3.882.418 3.882 1.374v.657c.183 2.863.003 3.879-.594 4.299z" transform="translate(-336.511 -296.291)" style="fill:#ffb27d"/>
                    <path data-name="Path 241" d="M723.054 301.738a1.115 1.115 0 0 0-1.254-.418c-.836.239-.9 1.015-2.329.836-1.433-.06-1.792-.776-2.031-.418a10.724 10.724 0 0 0-.418 2.329s-2.867-6.57 2.927-6.57c0 0 5.973-.358 3.106 6.271z" transform="translate(-336.207 -294.631)" style="fill:#2c3a64"/>
                    <path data-name="Path 242" d="M713.428 316.9s-4.6.478-5.555 2.09c-1.374 2.27-1.374 8.66-1.374 13.677a2.2 2.2 0 0 0 3.345-.776c1.256-1.971 2.629-5.913 3.584-14.991z" transform="translate(-332.255 -302.446)" style="fill:#bc3f3f"/>
                    <path data-name="Path 243" d="M745.1 315z" transform="translate(-347.801 -301.681)" style="fill:#ffb27d"/>
                    <path data-name="Path 244" d="M750.3 299.279a.3.3 0 0 0 .06-.179c.06 0-.06.06-.06.179z" transform="translate(-349.895 -295.278)" style="fill:#d35c2b"/>
                    <g data-name="Group 121">
                        <path data-name="Path 245" d="m758.977 320.29-.776-.119L761.007 305l.239.06z" transform="translate(-353.077 -297.654)" style="fill:#2c3a64"/>
                    </g>
                    <path data-name="Path 246" d="M757.865 319.319s1.075.358 1.075-.179 1.015-1.493 1.015-1.792-1.374.358-1.613.418c-.059.234-.716 1.374-.477 1.553z" transform="translate(-352.921 -302.595)" style="fill:#ffb27d"/>
                    <path data-name="Path 247" d="M753.323 321.374a4.07 4.07 0 0 0-1.792-1.374 47.255 47.255 0 0 1-4.957 4.539 7.467 7.467 0 0 0-2.747 4.479c-.478 2.628.776 3.345.776 3.345s1.015.179 2.688-1.911c1.075-1.374 2.747-4.181 4.061-6.032a24.031 24.031 0 0 1 1.971-3.046z" transform="translate(-347.245 -303.695)" style="fill:#bc3f3f"/>
                    <path data-name="Path 248" d="M720.8 319.115a8.694 8.694 0 0 1 2.509-.06s-.239 1.254-.6 1.374a8.625 8.625 0 0 1-1.254 0 8.964 8.964 0 0 1-.655-1.314z" transform="translate(-338.015 -303.287)" style="fill:#1c468a"/>
                    <path data-name="Path 249" d="M721.795 321.26s-.478 17.739.239 18.814a5.823 5.823 0 0 0 1.613 1.493s1.195-1.075 1.254-1.613c.06-.478-1.911-18.754-1.911-18.754h-1.195z" transform="translate(-338.352 -304.178)" style="fill:#1c468a"/>
                    <path data-name="Path 250" d="M724 349.213a19.838 19.838 0 0 0 3.464.9c.836 0 2.27-1.433 2.031-1.852-.06-.06-1.493.418-1.792.239-.478-.358-1.195-.06-1.672 0-.418.06-1.852-.9-1.852-.9z" transform="translate(-339.303 -314.81)" style="fill:#ffb27d"/>
                    <path data-name="Path 251" d="M710.62 338.183a44.8 44.8 0 0 1 7.824 5.614 2.689 2.689 0 0 1-.657 2.508s-9.437-2.927-10.93-4.539c-1.557-1.493 2.329-3.882 3.763-3.583z" transform="translate(-332.254 -311.007)" style="fill:#bc3f3f"/>
                    <g data-name="Group 124">
                        <path data-name="Path 252" d="m724.585 346.829-7.048-2.329-.537 1.075 7.585 2.389z" transform="translate(-336.484 -313.562)" style="fill:#fcecdb"/>
                        <path data-name="Path 253" d="m734.359 343.4-4.659 2.986v1.135l5.256-3.046z" transform="translate(-341.599 -313.119)" style="fill:#f4d2b8"/>
                        <g data-name="Group 122">
                            <path data-name="Path 254" d="m724.3 348.827-8-2.688.12-.239 7.884 2.628z" transform="translate(-336.202 -314.126)" style="fill:#2c3a64"/>
                        </g>
                        <g data-name="Group 123">
                            <path data-name="Path 255" d="m729.7 348.3 5.853-3.4-.179-.3-5.674 3.4z" transform="translate(-341.599 -313.602)" style="fill:#2c3a64"/>
                        </g>
                    </g>
                    <path data-name="Path 256" d="M719.35 317.9s-1.433-2.09-1.672-1.911a1.834 1.834 0 0 0-.478.776 23.175 23.175 0 0 0 2.27 1.613z" transform="translate(-336.565 -302.076)" style="fill:#1c468a"/>
                    <path data-name="Path 257" d="M724.847 317.63a12.9 12.9 0 0 1 1.015-2.031 3.384 3.384 0 0 1 .478.776 4.27 4.27 0 0 1-1.613 1.433c-.298.12.12-.178.12-.178z" transform="translate(-339.553 -301.922)" style="fill:#1c468a"/>
                </g>
            </g>
        </g>
        <g data-name="Group 129">
            <path data-name="Path 259" d="M285.052 354.6a14.656 14.656 0 0 1-3.165 1.433c-.657 0-3.464-.478-4.181-.179a8.66 8.66 0 0 0-2.449 2.449c-.478.9 1.852.478 3.046-.239.179-.06.358-.179.6-.06a7.827 7.827 0 0 0 2.329.179c.776-.239 4.9-.6 4.9-.6z" transform="translate(-110.868 -146.816)" style="fill:#e49963"/>
            <path data-name="Path 260" d="M280.329 440.36s-.776 4.3-1.613 4.36H269.1a1.752 1.752 0 0 1 1.613-1.493 7.363 7.363 0 0 0 4.778-2.927 10.073 10.073 0 0 0 4.838.06z" transform="translate(-108.414 -181.331)" style="fill:#1f252a"/>
            <path data-name="Path 261" d="M308.94 320.578s-2.628 18.4-6.869 20.008a89.279 89.279 0 0 1-14.215 2.867s-.657-.6-.478-2.747c0 0 9.735-3.584 11.169-5.555 2.09-2.927-1.254-11.826 1.374-14.633 2.569-2.748 6.929-3.882 9.019.06z" transform="translate(-115.764 -132.085)" style="fill:#ddaf4a"/>
            <path data-name="Path 262" d="M306.9 420.6s2.688 1.852 2.329 2.628c-.06.06-2.09 3.7-2.09 3.7l-2.628 4.6a1.729 1.729 0 0 1-.6-2.09c.478-1.493 1.672-3.524.358-5.316 2.814-2.387 2.631-3.522 2.631-3.522z" transform="translate(-122.387 -173.397)" style="fill:#1f252a"/>
            <path data-name="Path 263" d="M289.9 386.529c1.493-1.792 18.635-5.316 20.9-8.72a10.44 10.44 0 0 0 1.433-3.345v-2.27L305.011 371s-2.09 6.271-8.123 8.72c-5.793 2.329-6.869 6.271-6.988 6.809z" transform="translate(-116.791 -153.421)" style="fill:#0e2c3d"/>
            <path data-name="Path 264" d="M306.6 314.984c3.464.9 9.138-2.27 9.138-2.27a8.542 8.542 0 0 1-3.046-4.778c0-.179-.06-.358-.06-.478-.358-.06-1.015-.239-1.792-.358l-2.628 2.329a19.8 19.8 0 0 0 .418 2.688 3.968 3.968 0 0 0 .179.9 8.49 8.49 0 0 0-2.209 1.967z" transform="translate(-123.517 -127.686)" style="fill:#fcdebe"/>
            <path data-name="Path 265" d="M316.2 332.33c-.478 6.63.179 16.783-.418 18.575-.478 1.493-6.032.6-8.242.06a26.506 26.506 0 0 1-2.867-.776c-2.867-.836-5.973-2.09-6.271-3.106v-.483a12.805 12.805 0 0 0 .6-2.21c.06-1.374.06-2.867.06-4.539v-.717c.06-1.852.179-3.763.239-5.734.06-1.195.179-2.449.239-3.584a48.314 48.314 0 0 1 1.015-7.287 11.811 11.811 0 0 1 3.763-5.793l1.075-.9a6.424 6.424 0 0 0 3.763-.478c1.374-.657 1.852-1.075 2.09-.9 3.28 2.284 5.49 9.69 4.954 17.872z" transform="translate(-120.215 -130.638)" style="fill:#f9c953"/>
            <path data-name="Path 266" d="M304.771 356.942c-2.867-.836-5.973-2.09-6.271-3.106v-.478a12.8 12.8 0 0 0 .6-2.21c.06-1.374.06-2.867.06-4.539v-.717l11.524-14.692c0 .06 7.705 16.066-5.913 25.742z" transform="translate(-120.255 -137.392)" style="fill:#ddaf4a"/>
            <path data-name="Path 267" d="M309.3 309.37a19.808 19.808 0 0 0 .418 2.688 6.786 6.786 0 0 0 4.121-4.121c0-.179-.06-.358-.06-.478-.358-.06-1.015-.239-1.792-.358z" transform="translate(-124.605 -127.686)" style="fill:#edcaa8"/>
            <path data-name="Path 268" d="M306.7 306.6s5.614-.9 4.957-4.479c-.657-3.524-.358-5.973-3.942-5.555s-4.061 1.911-4.121 3.106c-.118 1.376 1.555 7.11 3.106 6.928z" transform="translate(-122.305 -123.426)" style="fill:#fcdebe"/>
            <g data-name="Group 128">
                <path data-name="Rectangle 24" transform="rotate(-17.998 710.991 -397.213)" style="fill:#3a4d95" d="M0 0h.478v13.618H0z"/>
                <path data-name="Rectangle 25" transform="rotate(-1.224 10024.034 -7465.485)" style="fill:#3a4d95" d="M0 0h14.334v.836H0z"/>
            </g>
            <path data-name="Path 269" d="M287.729 362.608s-4.6 1.195-6.271 1.075c-1.792-.179-3.165-.9-3.345-1.374-.239-.418-.657-1.195.478-1.015 1.194.179 2.747.418 2.867.179.06-.239-.9-.179-.9-.179s-.358-.418.06-.418 1.493-.358 1.911-.06c.418.179.836 1.015 1.075.9.358 0 3.882-1.613 3.882-1.613z" transform="translate(-111.933 -149.031)" style="fill:#e49963"/>
            <path data-name="Path 270" d="M308.732 322.058s-.478 18.575-4.6 20.665a98.289 98.289 0 0 1-13.8 4.36s-.776-.478-.836-2.688c0 0 9.317-4.6 10.512-6.749 1.792-3.106-2.628-11.647-.358-14.693s6.45-4.538 9.082-.895z" transform="translate(-116.63 -132.849)" style="fill:#f9c953"/>
            <path data-name="Path 271" d="M189.235 180.25a2.625 2.625 0 0 0-.657-1.852s.239-1.194-.239-1.433c-.478-.179-.6.836-.776.657a4.728 4.728 0 0 1-1.613-2.031c-.418-1.075-4.181.239-4.718.418-.418.179-2.947.027-2.746-1.1s4.6-4.751 8-3.8c3.464.9 3.942 2.628 3.763 4.061s.419 4.542-1.014 5.08z"/>
            <path data-name="Path 272" d="M307.951 370.042c-1.194-2.867-12.662 1.493-12.662 1.493s-2.27 5.734-5.136 12.841c-.358.9-.776 1.852-1.194 2.867a10.759 10.759 0 0 0-.478 1.254c-1.254 3.165-2.628 6.45-3.882 9.556-2.21 5.375-3.942 10.094-4.9 12.542h6.032a315.621 315.621 0 0 0 4.36-6.211 56.5 56.5 0 0 0 4.718-8.063c.358-.657.6-1.374.836-1.911a6.648 6.648 0 0 0 .478-1.792c.478-2.747 3.524-5.614 6.271-9.138a35.271 35.271 0 0 0 2.506-3.58c3.23-5.259 4.006-7.648 3.051-9.858z" transform="translate(-112.683 -152.642)" style="fill:#0e2c3d"/>
            <path data-name="Path 273" d="M305.248 370.478 288.226 370s-14.215 8.84-15.887 14.872c-1.374 4.957 13.2 14.872 18.336 18.216l2.867-3.763c-2.688-3.285-9.258-10.93-10.751-12.841-.06-.06-.06-.239.06-.418 1.493-1.792 18.635-5.316 20.9-8.72a9.291 9.291 0 0 0 1.493-6.869z" transform="translate(-109.682 -153.018)" style="fill:#0e2c3d"/>
            <path data-name="Path 274" d="M308.984 305.057c-.06.06-.239 0-.358-.06-.06-.06-.179-.239-.06-.358a.371.371 0 0 1 .358-.239c.179 0 .239 0 .239.179.06.06.06.239.06.358.119.063-.06.12-.239.12z" transform="translate(-124.288 -126.599)" style="fill:#282f39"/>
            <path data-name="Path 275" d="M305.05 306.331c0-.06-.06-.06-.06-.239a.574.574 0 0 1 .06-.418c.179-.06.358-.06.418.06a.059.059 0 0 0 .06.06c0 .06.06.239 0 .358 0 .06-.06.06-.239.06 0 .119-.18.119-.239.119z" transform="translate(-122.863 -127.096)" style="fill:#282f39"/>
            <path data-name="Path 276" d="M306.9 308.432a.9.9 0 0 0 .836.478c.6 0 1.254-.836 1.613-2.21-.179.358-.657 1.493-1.613 1.792a.642.642 0 0 1-.836-.06z" transform="translate(-123.638 -127.525)" style="fill:#edcaa8"/>
        </g>
    </g>
</svg>
