<?xml version="1.0" encoding="utf-8"?>
<!-- Generator: Adobe Illustrator 24.0.1, SVG Export Plug-In . SVG Version: 6.00 Build 0)  -->
<svg version="1.1" id="Layer_1" xmlns="http://www.w3.org/2000/svg" xmlns:xlink="http://www.w3.org/1999/xlink" x="0px" y="0px"
	 viewBox="0 0 42 30" style="enable-background:new 0 0 42 30;" xml:space="preserve">
<style type="text/css">
	.st0{fill:#DCE1F2;}
	.st1{fill:#3A4D96;}
	.st2{fill:#00A569;}
	.st3{fill:#3A4D95;}
</style>
<g id="Layer_2_copy_4">
	<g>
		<g id="Path_48_2_">
			<path class="st0" d="M27.03,8.17l-1.34,0.6c-0.45,0.2-0.95-0.17-0.9-0.68l0.14-1.52c0.02-0.18-0.04-0.37-0.16-0.51L23.8,4.92
				c-0.32-0.38-0.14-0.99,0.34-1.1l1.43-0.33c0.18-0.04,0.33-0.16,0.41-0.31l0.75-1.31c0.17-0.31,0.55-0.42,0.86-0.25
				c0.11,0.06,0.19,0.15,0.25,0.25l0.75,1.31c0.09,0.16,0.24,0.27,0.41,0.31l1.43,0.33c0.48,0.11,0.67,0.72,0.34,1.1L29.8,6.07
				c-0.12,0.14-0.18,0.32-0.16,0.51l0.14,1.52c0.05,0.51-0.45,0.88-0.9,0.68l-1.34-0.6C27.37,8.09,27.19,8.09,27.03,8.17z"/>
			<path class="st1" d="M25.43,9.35c-0.23,0-0.47-0.07-0.67-0.22c-0.35-0.25-0.53-0.66-0.49-1.09l0.14-1.52
				c0-0.05-0.01-0.09-0.04-0.13L23.4,5.26c-0.27-0.32-0.36-0.76-0.22-1.17c0.13-0.4,0.45-0.69,0.85-0.78l1.43-0.33
				c0.03-0.01,0.06-0.03,0.08-0.06l0.75-1.31c0.14-0.26,0.39-0.46,0.68-0.55c0.3-0.09,0.61-0.05,0.88,0.09
				c0.19,0.11,0.35,0.26,0.46,0.46l0.74,1.3c0.02,0.03,0.05,0.06,0.08,0.06l1.42,0.33c0.4,0.09,0.71,0.39,0.85,0.78
				c0.13,0.41,0.05,0.84-0.22,1.16L30.2,6.4c-0.03,0.03-0.04,0.08-0.04,0.12l0.14,1.52c0.04,0.43-0.15,0.84-0.5,1.09
				c-0.34,0.24-0.76,0.28-1.14,0.11l-1.34-0.6c-0.03-0.01-0.06-0.01-0.08,0l0,0l-1.34,0.6C25.74,9.31,25.58,9.35,25.43,9.35z
				 M27.28,7.59c0.16,0,0.32,0.03,0.47,0.1l1.34,0.6c0.01,0.01,0.05,0.02,0.1-0.01c0.02-0.02,0.07-0.06,0.06-0.15l-0.14-1.52
				c-0.03-0.32,0.07-0.64,0.28-0.89l0.97-1.15c0.05-0.06,0.04-0.14,0.03-0.16c-0.01-0.04-0.04-0.08-0.09-0.09l-1.43-0.33
				c-0.32-0.08-0.59-0.28-0.75-0.57l-0.74-1.31c-0.01-0.03-0.03-0.04-0.05-0.05c-0.03-0.02-0.07-0.02-0.09-0.01
				s-0.05,0.02-0.07,0.05l-0.75,1.32c-0.14,0.29-0.42,0.5-0.73,0.57l-1.43,0.33c-0.06,0.01-0.08,0.06-0.09,0.09s-0.03,0.1,0.03,0.17
				l0.97,1.14c0.21,0.25,0.31,0.57,0.28,0.89L25.3,8.14c-0.01,0.09,0.04,0.13,0.06,0.15c0.05,0.04,0.09,0.02,0.1,0.01l1.34-0.6
				C26.96,7.63,27.12,7.59,27.28,7.59z"/>
		</g>
		<g id="Path_48_1_">
			<path class="st0" d="M34.07,18.24l-1.34,0.6c-0.45,0.2-0.95-0.17-0.9-0.68l0.14-1.52c0.02-0.18-0.04-0.37-0.16-0.51L30.84,15
				c-0.32-0.38-0.14-0.99,0.34-1.1l1.43-0.33c0.18-0.04,0.33-0.16,0.41-0.31l0.75-1.31c0.17-0.31,0.55-0.42,0.86-0.25
				c0.11,0.06,0.19,0.15,0.25,0.25l0.75,1.31c0.09,0.16,0.24,0.27,0.41,0.31l1.43,0.33c0.48,0.11,0.67,0.72,0.34,1.1l-0.97,1.14
				c-0.12,0.14-0.18,0.32-0.16,0.51l0.14,1.52c0.05,0.51-0.45,0.88-0.9,0.68l-1.34-0.6C34.42,18.17,34.24,18.17,34.07,18.24z"/>
			<path class="st1" d="M32.47,19.42c-0.23,0-0.47-0.07-0.67-0.22c-0.35-0.25-0.53-0.66-0.49-1.09l0.14-1.52
				c0-0.05-0.01-0.09-0.04-0.13l-0.96-1.14c-0.27-0.32-0.36-0.76-0.22-1.17c0.13-0.4,0.45-0.69,0.85-0.78l1.43-0.33
				c0.03-0.01,0.06-0.03,0.08-0.06l0.75-1.31c0.14-0.26,0.39-0.46,0.68-0.55c0.3-0.09,0.61-0.05,0.88,0.09
				c0.19,0.11,0.35,0.27,0.46,0.46l0.74,1.3c0.02,0.03,0.05,0.06,0.08,0.07l1.42,0.33c0.4,0.09,0.71,0.39,0.85,0.78
				c0.13,0.41,0.05,0.84-0.22,1.16l-0.97,1.14c-0.03,0.03-0.04,0.08-0.04,0.12l0.14,1.52c0.04,0.43-0.15,0.84-0.5,1.09
				c-0.34,0.24-0.76,0.28-1.14,0.11l-1.34-0.6c-0.03-0.01-0.06-0.01-0.08,0l-1.34,0.6C32.79,19.39,32.63,19.42,32.47,19.42z
				 M34.33,17.66c0.16,0,0.32,0.03,0.47,0.1l1.34,0.6c0.01,0.01,0.05,0.02,0.1-0.01c0.02-0.02,0.07-0.06,0.06-0.15l-0.14-1.52
				c-0.03-0.32,0.07-0.64,0.28-0.89l0.97-1.15c0.05-0.06,0.04-0.14,0.03-0.16c-0.01-0.04-0.04-0.08-0.09-0.09l-1.43-0.33
				c-0.32-0.08-0.59-0.28-0.75-0.57l-0.74-1.31c-0.01-0.03-0.03-0.04-0.05-0.05c-0.03-0.02-0.07-0.02-0.09-0.01
				s-0.05,0.02-0.07,0.05l-0.75,1.32c-0.16,0.28-0.43,0.49-0.75,0.56l-1.43,0.33c-0.06,0.01-0.08,0.06-0.09,0.09
				s-0.03,0.1,0.03,0.17l0.97,1.14c0.21,0.25,0.31,0.57,0.28,0.89l-0.14,1.52c-0.01,0.09,0.04,0.13,0.06,0.15
				c0.05,0.04,0.09,0.02,0.1,0.01l1.34-0.6C34.01,17.7,34.17,17.66,34.33,17.66z"/>
		</g>
		<g>
			<g>
				<path class="st2" d="M26.96,15.59v-1.6h-2.09v-1.11l-9.13-6.95l-9.52,6.95v1.11H4.13v1.6H6.9v9.62H4.75l-0.62,3.26h22.85
					l-0.62-3.24H24.2v-9.64L26.96,15.59L26.96,15.59z M15.74,9.79c0.98,0,1.73,0.81,1.73,1.73c0,0.98-0.81,1.73-1.73,1.73
					c-0.98,0-1.73-0.81-1.73-1.73S14.85,9.79,15.74,9.79L15.74,9.79z M12,25.14H9.2v-9.62H12V25.14z M16.72,25.14h-2.4v-9.62h2.4
					V25.14z M21.93,25.14h-2.99v-9.62h2.99V25.14z"/>
				<path class="st3" d="M27.61,28.99H3.5l0.82-4.3h2.06v-8.58H3.61v-2.64H5.7v-0.85l10.05-7.33l9.65,7.34v0.85h2.09v2.64h-2.75v8.6
					h2.06L27.61,28.99z M4.76,27.95h21.59l-0.42-2.19h-2.24V15.07h2.75v-0.56h-2.09v-1.37l-8.62-6.56l-9,6.56v1.37H4.65v0.56h2.77
					v10.66H5.18L4.76,27.95z M22.45,25.67h-4.03V15h4.03V25.67z M19.47,24.62h1.94v-8.58h-1.94V24.62z M17.24,25.67H13.8V15h3.44
					V25.67z M14.83,24.62h1.36v-8.58h-1.36C14.83,16.04,14.83,24.62,14.83,24.62z M12.52,25.67H8.68V15h3.84V25.67z M9.72,24.62
					h1.75v-8.58H9.72V24.62z M15.74,13.76c-1.24,0-2.25-1.01-2.25-2.25c0-1.2,1.05-2.25,2.25-2.25c1.24,0,2.25,1.01,2.25,2.25
					S16.98,13.76,15.74,13.76z M15.74,10.31c-0.62,0-1.21,0.59-1.21,1.21c0,0.67,0.54,1.21,1.21,1.21s1.21-0.54,1.21-1.21
					S16.41,10.31,15.74,10.31z"/>
			</g>
		</g>
	</g>
</g>
</svg>
