<svg xmlns="http://www.w3.org/2000/svg" width="67.5" height="57.5">
    <defs>
        <linearGradient id="prefix__a" x1="0%" x2="64.279%" y1="76.604%" y2="0%">
            <stop offset="0%" stop-color="#BD58A0"/>
            <stop offset="100%" stop-color="#FFC864"/>
        </linearGradient>
        <linearGradient id="prefix__b" x1="74.314%" x2="0%" y1="66.913%" y2="0%">
            <stop offset="0%" stop-color="#FFC107"/>
            <stop offset="44%" stop-color="#9D874E"/>
            <stop offset="100%" stop-color="#3A4D95"/>
        </linearGradient>
    </defs>
    <path fill="#333" fill-rule="evenodd" d="M46.322 33.791h-1.567v4.701c0 .441-.187.863-.515 1.161-.314.285-.736.439-1.207.398l-11.274-1.128c-.532 1.123-1.595 1.994-2.775 2.414v5.199h7.938c.866 0 1.567.7 1.567 1.567 0 .866-.701 1.567-1.567 1.567H17.913c-.867 0-1.567-.701-1.567-1.567 0-.867.7-1.567 1.567-1.567h7.937v-5.199c-1.474-.526-2.71-1.756-3.087-3.293l-11.274-1.127c-.8-.08-1.41-.755-1.41-1.56v-4.701H8.512c-4.319 0-7.834-3.514-7.834-7.835 0-.865.701-1.567 1.567-1.567h18.801c.866 0 1.566.702 1.566 1.567 0 4.321-3.515 7.835-7.833 7.835h-1.567v3.283l9.863.987c.754-1.591 2.467-2.703 4.342-2.703 2.204 0 4.149 1.532 4.656 3.583l9.549.955v-2.97h-1.567c-4.319 0-7.833-3.515-7.833-7.836 0-.865.701-1.566 1.566-1.566h18.801c.866 0 1.567.701 1.567 1.566 0 4.32-3.515 7.836-7.834 7.836zM34.344 18.77h17.95v2.446h-17.95V18.77zm16.144-8.37v5.311h1.351v2.008H35.186v-2.008h.93V10.4h3.417v5.311h2.061V10.4h3.417v5.311h2.06V10.4h3.417zM34.344 7.432l8.976-4.136 8.974 4.136v1.916h-17.95V7.432zm8.958.82c.889 0 1.612-.722 1.612-1.611s-.723-1.612-1.612-1.612c-.889 0-1.612.723-1.612 1.612 0 .889.723 1.611 1.612 1.611zm0-2.172c.308 0 .56.252.56.561 0 .309-.252.56-.56.56-.309 0-.56-.251-.56-.56 0-.309.251-.561.56-.561zm-40.54 9.452h17.951v2.446H2.762v-2.446zm16.144-8.37v5.31h1.351v2.008H3.605v-2.008h.93v-5.31h3.416v5.31h2.061v-5.31h3.417v5.31h2.06v-5.31h3.417zM2.762 4.193L11.738.056l8.975 4.137V6.11H2.762V4.193zm8.958.821c.889 0 1.612-.723 1.612-1.612 0-.888-.723-1.612-1.612-1.612-.889 0-1.612.724-1.612 1.612 0 .889.723 1.612 1.612 1.612zm0-2.172c.309 0 .56.252.56.56 0 .308-.251.56-.56.56-.308 0-.56-.252-.56-.56 0-.308.252-.56.56-.56z"/>
    <path fill="url(#prefix__a)" d="M46.322 33.791h-1.567v4.701c0 .441-.187.863-.515 1.161-.314.285-.736.439-1.207.398l-11.274-1.128c-.532 1.123-1.595 1.994-2.775 2.414v5.199h7.938c.866 0 1.567.7 1.567 1.567 0 .866-.701 1.567-1.567 1.567H17.913c-.867 0-1.567-.701-1.567-1.567 0-.867.7-1.567 1.567-1.567h7.937v-5.199c-1.474-.526-2.71-1.756-3.087-3.293l-11.274-1.127c-.8-.08-1.41-.755-1.41-1.56v-4.701H8.512c-4.319 0-7.834-3.514-7.834-7.835 0-.865.701-1.567 1.567-1.567h18.801c.866 0 1.566.702 1.566 1.567 0 4.321-3.515 7.835-7.833 7.835h-1.567v3.283l9.863.987c.754-1.591 2.467-2.703 4.342-2.703 2.204 0 4.149 1.532 4.656 3.583l9.549.955v-2.97h-1.567c-4.319 0-7.833-3.515-7.833-7.836 0-.865.701-1.566 1.566-1.566h18.801c.866 0 1.567.701 1.567 1.566 0 4.32-3.515 7.836-7.834 7.836zM34.344 18.77h17.95v2.446h-17.95V18.77zm16.144-8.37v5.311h1.351v2.008H35.186v-2.008h.93V10.4h3.417v5.311h2.061V10.4h3.417v5.311h2.06V10.4h3.417zM34.344 7.432l8.976-4.136 8.974 4.136v1.916h-17.95V7.432zm8.958.82c.889 0 1.612-.722 1.612-1.611s-.723-1.612-1.612-1.612c-.889 0-1.612.723-1.612 1.612 0 .889.723 1.611 1.612 1.611zm0-2.172c.308 0 .56.252.56.561 0 .309-.252.56-.56.56-.309 0-.56-.251-.56-.56 0-.309.251-.561.56-.561zm-40.54 9.452h17.951v2.446H2.762v-2.446zm16.144-8.37v5.31h1.351v2.008H3.605v-2.008h.93v-5.31h3.416v5.31h2.061v-5.31h3.417v5.31h2.06v-5.31h3.417zM2.762 4.193L11.738.056l8.975 4.137V6.11H2.762V4.193zm8.958.821c.889 0 1.612-.723 1.612-1.612 0-.888-.723-1.612-1.612-1.612-.889 0-1.612.724-1.612 1.612 0 .889.723 1.612 1.612 1.612zm0-2.172c.309 0 .56.252.56.56 0 .308-.251.56-.56.56-.308 0-.56-.252-.56-.56 0-.308.252-.56.56-.56z"/>
    <path fill="#333" fill-rule="evenodd" d="M54.613 30.977h-7.68c-1.066 0-1.92.855-1.92 1.921v15.36c0 1.065.854 1.92 1.92 1.92h11.52c1.066 0 1.921-.855 1.921-1.92v-11.52l-5.761-5.761m-1.92 16.321l-3.84-3.84h2.4v-2.88h2.88v2.88h2.4l-3.84 3.84m.96-9.6v-5.28l5.28 5.28h-5.28z"/>
    <path fill="url(#prefix__b)" stroke="#FFF9DB" stroke-width="3" d="M54.613 30.977h-7.68c-1.066 0-1.92.855-1.92 1.921v15.36c0 1.065.854 1.92 1.92 1.92h11.52c1.066 0 1.921-.855 1.921-1.92v-11.52l-5.761-5.761m-1.92 16.321l-3.84-3.84h2.4v-2.88h2.88v2.88h2.4l-3.84 3.84m.96-9.6v-5.28l5.28 5.28h-5.28z"/>
</svg>
