<svg xmlns="http://www.w3.org/2000/svg" viewBox="0 0 30 30"><defs><style>.cls-1,.cls-4{fill:#02a569;}.cls-1{opacity:0.1;}.cls-2{fill:#fff;}.cls-3{fill:#3a4d95;}</style></defs><title>girls-hostel</title><g id="Layer_3" data-name="Layer 3"><circle class="cls-1" cx="12.55" cy="13.14" r="11.93"/></g><g id="Layer_24" data-name="Layer 24"><path class="cls-2" d="M18.39,7.79a5.22,5.22,0,0,0-3.75,1.65,6.75,6.75,0,0,0-2,4.44,23.11,23.11,0,0,1-.95,7.4l-.15.45.47.07c1.51.24,2.47.39,2.94.5l.38.08.1-.37c.08-.3.14-.66.19-1l0-.18-.12-.14a6.68,6.68,0,0,1-.55-.71,9.47,9.47,0,0,1-1.52-5.16.12.12,0,0,1,.05-.1,3.64,3.64,0,0,0,1-1.48,5.75,5.75,0,0,0,.5-2.66.13.13,0,0,1,.1-.16h0a.13.13,0,0,1,.14.09A5.08,5.08,0,0,0,18,13.05a8.23,8.23,0,0,0,3.37.09,2.06,2.06,0,0,1,2,1.07l0,.4,0,.12a9.12,9.12,0,0,1-2.15,6.14l-.15.15.05.21c.06.23.13.52.2.77l.1.35.36-.07c.34-.06.88-.13,1.8-.26l1.9-.25-.13-.45c-1.07-3.69-1.07-4.23-1.05-6.52V13.64A6.25,6.25,0,0,0,18.39,7.79Z"/><path class="cls-2" d="M16.05,20.29a3.35,3.35,0,0,0,2.35,1.1c2.46,0,4.47-2.95,4.47-6.57v-.13l-.08-.11a1.74,1.74,0,0,0-1.65-.67l-1.7.06a5.07,5.07,0,0,1-1.63-.28,4.49,4.49,0,0,1-1.89-1.17L15.44,12l-.1.53A8.68,8.68,0,0,1,15,13.6a3.67,3.67,0,0,1-.84,1.29L14,15v.18a7.77,7.77,0,0,0,2,5.06Z"/><path class="cls-3" d="M8.08,28.39a.3.3,0,0,1-.24-.12.28.28,0,0,1,0-.26,16.65,16.65,0,0,1,1.7-3.76A4.73,4.73,0,0,1,12,23.19l2.78-.4-3.72-.54a.34.34,0,0,1-.22-.15.28.28,0,0,1,0-.24,21.18,21.18,0,0,0,1.2-8A7.52,7.52,0,0,1,14.23,9,5.83,5.83,0,0,1,18.39,7.2,6.87,6.87,0,0,1,25,13.63c0,.44,0,.82,0,1.17,0,2.36,0,2.84,1.24,7.11a.37.37,0,0,1,0,.25.35.35,0,0,1-.21.13l-4.14.55,3,.39a5,5,0,0,1,2.33,1A14.48,14.48,0,0,1,29,28a.3.3,0,0,1,0,.26.33.33,0,0,1-.25.13ZM18.39,7.79a5.22,5.22,0,0,0-3.75,1.65,6.75,6.75,0,0,0-2,4.44,23.11,23.11,0,0,1-.95,7.4l-.15.45.47.07c1.51.24,2.47.39,2.94.5l.38.08.1-.37c.08-.3.14-.66.19-1l0-.18-.12-.14a6.68,6.68,0,0,1-.55-.71,9.47,9.47,0,0,1-1.52-5.16.12.12,0,0,1,.05-.1,3.64,3.64,0,0,0,1-1.48,5.75,5.75,0,0,0,.5-2.66.13.13,0,0,1,.1-.16h0a.13.13,0,0,1,.14.09A5.08,5.08,0,0,0,18,13.05a8.23,8.23,0,0,0,3.37.09,2.06,2.06,0,0,1,2,1.07l0,.4,0,.12a9.12,9.12,0,0,1-2.15,6.14l-.15.15.05.21c.06.23.13.52.2.77l.1.35.36-.07c.34-.06.88-.13,1.8-.26l1.9-.25-.13-.45c-1.07-3.69-1.07-4.23-1.05-6.52V13.64A6.25,6.25,0,0,0,18.39,7.79Zm-2.34,12.5a3.35,3.35,0,0,0,2.35,1.1c2.46,0,4.47-2.95,4.47-6.57v-.13l-.08-.11a1.74,1.74,0,0,0-1.65-.67l-1.7.06a5.07,5.07,0,0,1-1.63-.28,4.49,4.49,0,0,1-1.89-1.17L15.44,12l-.1.53A8.68,8.68,0,0,1,15,13.6a3.67,3.67,0,0,1-.84,1.29L14,15v.18a7.77,7.77,0,0,0,2,5.06Z"/></g><g id="Layer_7" data-name="Layer 7"><path class="cls-4" d="M13,23.56h0c1-.13,2,0,2.64-.8a.93.93,0,0,0,.19-.35,3.44,3.44,0,0,0,.29-.83,4.12,4.12,0,0,0,2.29.74,4.48,4.48,0,0,0,2.33-.68,5.36,5.36,0,0,0,.3.82h0a3.37,3.37,0,0,0,.32.59c.87.86,1.46.35,2.43.5h0a6.33,6.33,0,0,1,2.78.87c.13.12,1.11,2.15,1.69,3.44H8.49C9,26.63,10,24.54,10.12,24.41A5.77,5.77,0,0,1,13,23.56Z"/></g></svg>