<svg xmlns="http://www.w3.org/2000/svg" viewBox="0 0 30 30"><defs><style>.cls-1,.cls-3{fill:#02a569;}.cls-1{opacity:0.1;}.cls-2{fill:#3a4d95;}.cls-4{fill:#fff;}</style></defs><title>guest-room</title><g id="Layer_3" data-name="Layer 3"><circle class="cls-1" cx="12.55" cy="13.14" r="11.93"/></g><g id="Layer_39" data-name="Layer 39"><path class="cls-2" d="M24,13a2.93,2.93,0,1,1,3-2.92A3,3,0,0,1,24,13Z"/><path class="cls-2" d="M24.56,28.39a1.23,1.23,0,0,1-.54-.17V26.6H12.35v1.65a2.05,2.05,0,0,1-.57.14.53.53,0,0,1-.36-.17V26.6H9.33a5.34,5.34,0,0,1-.15-.71.15.15,0,0,1,.15-.14H27.18a.14.14,0,0,1,.14.14,1.75,1.75,0,0,1-.23.73l-1.78,0h-.4v1.65A.68.68,0,0,1,24.56,28.39Z"/><path class="cls-2" d="M11.89,23.9c-2.71,0-4.11-.4-4.11-3a.72.72,0,0,1,.36-.14.56.56,0,0,1,.36.17c0,1.74,1.72,2,3.39,2h13c1.75,0,3.4,0,3.4-2a1,1,0,0,1,.4-.14.47.47,0,0,1,.32.16c0,2.83-1.67,3-4.12,3Z"/><path class="cls-2" d="M12.72,21.05a3,3,0,0,1-3-2.93v-1a1.82,1.82,0,0,1,1.84-1.81h3.7a1.82,1.82,0,0,1,1.84,1.81v2.66a1.27,1.27,0,0,1-1.27,1.26Z"/><path class="cls-2" d="M20.47,21.05a1.27,1.27,0,0,1-1.28-1.26V17.13A1.83,1.83,0,0,1,21,15.32h3.7a1.83,1.83,0,0,1,1.85,1.81v1a3,3,0,0,1-3,2.93Z"/></g><g id="Layer_22" data-name="Layer 22"><path class="cls-3" d="M10.61,17.64v-.13a1.25,1.25,0,0,1,1.26-1.24H15a1.25,1.25,0,0,1,1.26,1.24v2a.64.64,0,0,1-.64.63H13.11A2.49,2.49,0,0,1,10.61,17.64Z"/><path class="cls-3" d="M25.68,17.65v-.14a1.25,1.25,0,0,0-1.25-1.23h-3.1a1.24,1.24,0,0,0-1.24,1.23v1.95a.63.63,0,0,0,.63.62h2.49A2.45,2.45,0,0,0,25.68,17.65Z"/><ellipse class="cls-4" cx="24.03" cy="10.12" rx="2.1" ry="2.07"/><path class="cls-2" d="M23.88,10.84a.28.28,0,0,0,.2-.08l.3-.29.06-.1a.36.36,0,0,0,0-.1V9.4a.29.29,0,0,0-.57,0v.75l-.21.21a.28.28,0,0,0,0,.4A.28.28,0,0,0,23.88,10.84Z"/></g></svg>