<svg xmlns="http://www.w3.org/2000/svg" viewBox="0 0 30 30"><defs><style>.cls-1,.cls-3{fill:#02a569;}.cls-1{opacity:0.1;}.cls-2{fill:#3a4d95;}.cls-4{fill:#fff;}</style></defs><title>gym</title><g id="Layer_3" data-name="Layer 3"><circle class="cls-1" cx="12.55" cy="13.14" r="11.93"/></g><g id="Layer_25" data-name="Layer 25"><path class="cls-2" d="M23,28.29a.69.69,0,0,1-.64-.74v-2.8h-8v2.8a.7.7,0,0,1-.64.74H11.18a.75.75,0,0,1-.7-.74V24.44H8.87a1.08,1.08,0,0,1-1-1.14v-.87a1.08,1.08,0,0,1,1-1.14h1.61V18.38a.74.74,0,0,1,.68-.75h2.58a.71.71,0,0,1,.64.75v2.79h8V18.38a.7.7,0,0,1,.64-.75h2.57a.71.71,0,0,1,.64.75l.07,2.93h1.6a1.11,1.11,0,0,1,1,1.14v.85a1.07,1.07,0,0,1-1,1.14H26.3l-.07,3.11a.7.7,0,0,1-.64.74Z"/></g><g id="Layer_5" data-name="Layer 5"><rect class="cls-3" x="23.03" y="18.3" width="2.58" height="9.34"/><rect class="cls-3" x="11.15" y="18.3" width="2.52" height="9.4"/><rect class="cls-4" x="14.42" y="22.07" width="7.9" height="1.76"/><path class="cls-4" d="M10.47,22.07v1.75H8.81a.13.13,0,0,1-.12-.14V22.22a.14.14,0,0,1,.12-.15Z"/><path class="cls-4" d="M26.3,22.07v1.75H28a.14.14,0,0,0,.12-.14V22.22a.14.14,0,0,0-.12-.15Z"/></g></svg>