<svg xmlns="http://www.w3.org/2000/svg" viewBox="0 0 30 30"><defs><style>.cls-1,.cls-3{fill:#02a569;}.cls-1{opacity:0.1;}.cls-2{fill:#3a4d95;}.cls-4{fill:#fff;}</style></defs><title>hospital</title><g id="Layer_3" data-name="Layer 3"><circle class="cls-1" cx="12.55" cy="13.14" r="11.93"/></g><g id="Layer_10" data-name="Layer 10"><path class="cls-2" d="M10,27.79a1.59,1.59,0,0,1-1.58-1.6V15.72A1.6,1.6,0,0,1,10,14.11h2V11.67a2.72,2.72,0,0,1,2.53-2.88h7.05a2.77,2.77,0,0,1,2.63,2.88v2.44h2.59a1.59,1.59,0,0,1,1.57,1.61V26.19a1.59,1.59,0,0,1-1.57,1.6Z"/><path class="cls-3" d="M8.89,15.68a.89.89,0,0,1,.9-.85h2.86V11.38a2.09,2.09,0,0,1,2-2.15h6.89a2.09,2.09,0,0,1,2,2.15v3.46H27a.88.88,0,0,1,.9.84V26.45a.89.89,0,0,1-.9.84H9.79a.89.89,0,0,1-.9-.84Z"/><polygon class="cls-4" points="19.23 17.12 17.54 17.12 17.54 20.14 14.73 20.14 14.73 21.98 17.54 21.98 17.54 25 19.23 25 19.23 21.98 22.04 21.98 22.04 20.14 22.04 20.13 19.23 20.13 19.23 17.12"/><path class="cls-4" d="M22,11.55v1.74H14.15V11.54a.79.79,0,0,1,.79-.8h6.28A.82.82,0,0,1,22,11.55Z"/></g></svg>