<svg xmlns="http://www.w3.org/2000/svg" xmlns:xlink="http://www.w3.org/1999/xlink" viewBox="0 0 30 30"><defs><style>.cls-1{fill:none;}.cls-2,.cls-6{fill:#02a569;}.cls-2{opacity:0.1;}.cls-3{clip-path:url(#clip-path);}.cls-4{fill:#3a4d95;}.cls-5{fill:#fff;}</style><clipPath id="clip-path"><rect class="cls-1" x="7.38" y="9.79" width="22" height="19"/></clipPath></defs><title>it-infrastructure</title><g id="Layer_3" data-name="Layer 3"><circle class="cls-2" cx="12.55" cy="13.14" r="11.93"/></g><g id="Layer_12" data-name="Layer 12"><g class="cls-3"><path class="cls-4" d="M27,10.94a1,1,0,0,0-.93-1.06H10.66a1,1,0,0,0-.94,1.06V24.12L7.38,27.29a1.51,1.51,0,0,0,1.51,1.5l19,.09a1.5,1.5,0,0,0,1.5-1.49L27.14,24Z"/></g><path class="cls-5" d="M26.12,22.24a.82.82,0,0,1-.77.85H11.61a.82.82,0,0,1-.77-.85V11.72a.82.82,0,0,1,.77-.85H25.35a.82.82,0,0,1,.77.85Z"/><path class="cls-6" d="M20,18l-2.3-2.6a2,2,0,0,0-.38-1.89A1.52,1.52,0,0,0,15.8,13l1,1.12.05.59-.69.79-.52-.07-1-1.12a2,2,0,0,0,.41,1.77,1.5,1.5,0,0,0,1.68.43L19,19.1A2,2,0,0,0,19.41,21a1.49,1.49,0,0,0,1.56.47l-1-1.12-.06-.59.7-.78.52.06,1,1.12a2,2,0,0,0-.42-1.77A1.5,1.5,0,0,0,20,18Z"/><path class="cls-6" d="M27.92,27.92H8.84a.4.4,0,0,1-.33-.64l2.2-3.23H26.22l2,3.23A.4.4,0,0,1,27.92,27.92Z"/><polygon class="cls-5" points="14.55 26.12 14.92 25.15 21.2 25.15 21.71 26.12 14.55 26.12"/></g></svg>