<svg xmlns="http://www.w3.org/2000/svg" viewBox="0 0 30 30"><defs><style>.cls-1,.cls-4{fill:#02a569;}.cls-1{opacity:0.1;}.cls-2{fill:#3a4d95;}.cls-3{fill:#fff;}</style></defs><title>laboratories</title><g id="Layer_3" data-name="Layer 3"><circle class="cls-1" cx="12.55" cy="13.14" r="11.93"/></g><g id="Layer_16" data-name="Layer 16"><path class="cls-2" d="M29,24.82,24.53,18V12.84a.89.89,0,0,0-.88-.88h-6a.88.88,0,0,0-.88.88V18l-4.05,6.85a2.55,2.55,0,0,0-.37,1.32A2.62,2.62,0,0,0,15,28.79H26.8a2.59,2.59,0,0,0,2.53-2A2.6,2.6,0,0,0,29,24.82Z"/><path class="cls-3" d="M27.17,27.57H14.53a1.22,1.22,0,0,1-.65-.18,1.28,1.28,0,0,1-.46-1.76l4.11-7.15a.46.46,0,0,0,.06-.23V13.17h6.13v5.08a.4.4,0,0,0,.07.24l4.44,7.14a1.29,1.29,0,0,1,.2.69A1.26,1.26,0,0,1,27.17,27.57Z"/><ellipse class="cls-4" cx="20.85" cy="22.47" rx="2.31" ry="2.3"/><circle class="cls-2" cx="27.14" cy="13.55" r="0.77"/><ellipse class="cls-2" cx="26.37" cy="10.13" rx="1.24" ry="1.24"/><path class="cls-4" d="M27.21,27.57H14.53a1.22,1.22,0,0,1-.65-.18,1.28,1.28,0,0,1-.46-1.76l2-3.59L26,22l2.27,3.61a1.29,1.29,0,0,1,.2.69A1.25,1.25,0,0,1,27.21,27.57Z"/><ellipse class="cls-3" cx="20.85" cy="22.47" rx="1.63" ry="1.63"/><ellipse class="cls-3" cx="17.97" cy="25.11" rx="0.85" ry="0.85"/></g></svg>