<svg xmlns="http://www.w3.org/2000/svg" viewBox="0 0 30 30"><defs><style>.cls-1,.cls-4{fill:#02a569;}.cls-1{opacity:0.1;}.cls-2{fill:#3a4d95;}.cls-3{fill:#fff;}</style></defs><title>library</title><g id="Layer_3" data-name="Layer 3"><circle class="cls-1" cx="12.55" cy="13.14" r="11.93"/></g><g id="Layer_26" data-name="Layer 26"><path class="cls-2" d="M18.36,28.29a2.86,2.86,0,0,1-.67-.08L9.35,26.56a1,1,0,0,1-.59-.89V23.14L8.54,23a1.63,1.63,0,0,1-.66-1.31v-.53a1.61,1.61,0,0,1,.67-1.29l.23-.14V17.43c0-.22.11-.47.39-.47l.17,0,2.15.74.22-.28a7.29,7.29,0,0,1,3.49-2.51l.73-.23-.5-.58a4.14,4.14,0,0,1-1-2.74,4,4,0,1,1,8,0,4.17,4.17,0,0,1-1,2.73l-.5.57.72.23a7.65,7.65,0,0,1,3.35,2.38l.22.27,2.3-.84.15,0c.29,0,.39.25.39.47v2.66l.23.15a1.37,1.37,0,0,1,.65,1.16v.53a1.42,1.42,0,0,1-.65,1.16L28,23v2.8a1,1,0,0,1-.62.89L19,28.19A2.27,2.27,0,0,1,18.36,28.29Zm9.11-7.92a.83.83,0,0,0-.86.78v.53a.86.86,0,0,0,1.72,0v-.53A.83.83,0,0,0,27.47,20.37ZM15.89,15.55a6.44,6.44,0,0,0-3.07,2l-.55.55,5.38,1.78a2.32,2.32,0,0,0,.65.09,2.23,2.23,0,0,0,.73-.11l5.39-1.93-.57-.53a6.48,6.48,0,0,0-3-1.84l-.91-.2-.14.06a4.13,4.13,0,0,1-1.44.26A4.19,4.19,0,0,1,17,15.4l-.14-.06ZM18.39,8a3.4,3.4,0,1,0,3.33,3.4A3.37,3.37,0,0,0,18.39,8Z"/><path class="cls-3" d="M15.89,15.55a6.44,6.44,0,0,0-3.07,2l-.55.55,5.38,1.78a2.32,2.32,0,0,0,.65.09,2.23,2.23,0,0,0,.73-.11l5.39-1.93-.57-.53a6.48,6.48,0,0,0-3-1.84l-.91-.2-.14.06a4.13,4.13,0,0,1-1.44.26A4.19,4.19,0,0,1,17,15.4l-.14-.06Z"/></g><g id="Layer_6" data-name="Layer 6"><ellipse class="cls-3" cx="18.39" cy="11.39" rx="3.32" ry="3.4"/><path class="cls-3" d="M28.33,21.93a1.05,1.05,0,0,1-2,0v-1a1.05,1.05,0,0,1,2,0Z"/><path class="cls-3" d="M10.46,21.93a.92.92,0,0,1-1,.78.93.93,0,0,1-1-.78v-1a.93.93,0,0,1,1-.78.92.92,0,0,1,1,.78Z"/><path class="cls-4" d="M18.13,27.58,9.45,25.94h0V23.41c.8-.17,1.7-.6,1.7-1.44V20.74c0-.85-.9-1.37-1.69-1.54V17.85S18,20.92,18.13,21Z"/><path class="cls-4" d="M18.79,27.58l8.68-1.64h0V23.41c-.8-.17-1.7-.6-1.7-1.44V20.74c0-.85.9-1.37,1.7-1.54V17.55s-8.55,3.32-8.68,3.34Z"/></g></svg>