<svg xmlns="http://www.w3.org/2000/svg" width="122.623" height="69.672"><defs><linearGradient id="b" x1=".5" x2=".5" y2="1" gradientUnits="objectBoundingBox"><stop offset="0" stop-color="#fdb262"/><stop offset="1" stop-color="#df4c38"/></linearGradient><clipPath id="a"><path data-name="Rectangle 17771" style="fill:#fddcb9" d="M0 0h122.623v69.672H0z"/></clipPath></defs><g data-name="Group 26971" style="isolation:isolate"><g data-name="Group 26970" style="clip-path:url(#a)"><path data-name="Path 60343" d="M256.634 359.181a1.222 1.222 0 0 0 1.15 1.5h40.481a1.221 1.221 0 0 0 1.15-1.5 10.994 10.994 0 0 1-2.124-5.147 9.54 9.54 0 0 1 .587-5.522 1.5 1.5 0 0 0-1.426-1.266H259.6a1.5 1.5 0 0 0-1.426 1.266 9.54 9.54 0 0 1 .586 5.522 10.994 10.994 0 0 1-2.124 5.147" transform="translate(-217.507 -294.88)" style="fill:#fdbc77"/><path data-name="Path 60344" d="M269.323 331.245a.807.807 0 0 0 .816.949h37.295a.807.807 0 0 0 .816-.949 1.123 1.123 0 0 0-1.075-.936H270.4a1.123 1.123 0 0 0-1.075.936" transform="translate(-228.267 -280.497)" style="fill:#df4c38"/><path data-name="Path 60345" d="M286.535 441.18h-44.872a1.47 1.47 0 0 0-1.476 1.461v.219a1.47 1.47 0 0 0 1.476 1.461h44.872a1.47 1.47 0 0 0 1.476-1.461v-.219a1.47 1.47 0 0 0-1.476-1.461" transform="translate(-203.581 -374.648)" style="fill:#fdbc77"/><path data-name="Path 60346" d="M259.08 35.9a24.713 24.713 0 0 0-24.814 24.553A24.411 24.411 0 0 0 243.2 79.31h3.331a22.824 22.824 0 1 1 25.093 0h3.331a24.411 24.411 0 0 0 8.937-18.854A24.713 24.713 0 0 0 259.08 35.9" transform="translate(-198.562 -30.488)" style="fill:#fddcb9"/><path data-name="Path 60347" d="M317.844 140.671a2.789 2.789 0 0 1-2.67 2.837v.022a2.8 2.8 0 0 1 2.671 2.9 2.8 2.8 0 0 1 2.671-2.9v-.022a2.788 2.788 0 0 1-2.67-2.837" transform="translate(-300.094 -101.046)" style="fill:#fc7d47"/><path data-name="Path 60348" d="M191.013 167.988a1.746 1.746 0 0 1-1.672 1.776v.014a1.75 1.75 0 0 1 1.672 1.818 1.75 1.75 0 0 1 1.672-1.818v-.014a1.746 1.746 0 0 1-1.672-1.776" transform="translate(-160.483 -142.655)" style="opacity:.59;fill:#df4c38"/><path data-name="Path 60349" d="M584.323 36.864a1.746 1.746 0 0 1-1.672 1.776v.014a1.678 1.678 0 1 0 3.344 0v-.014a1.746 1.746 0 0 1-1.672-1.776" transform="translate(-493.849 -31.305)" style="opacity:.59;fill:#df4c38"/><path data-name="Path 60350" d="M574.542 92.658a2.551 2.551 0 0 1-2.442 2.594v.021a2.452 2.452 0 1 0 4.886 0v-.021a2.55 2.55 0 0 1-2.442-2.594" transform="translate(-484.906 -78.685)" style="opacity:.59;fill:#fc7d47"/><path data-name="Path 60351" d="M511.752 19.458a4.187 4.187 0 0 1-4.009 4.259v.034a4.2 4.2 0 0 1 4.01 4.36 4.2 4.2 0 0 1 4.01-4.36v-.034a4.186 4.186 0 0 1-4.009-4.259" transform="translate(-430.357 -16.524)" style="opacity:.59;fill:#fc7d47"/><path data-name="Path 60352" d="M161.823 221.83a4.187 4.187 0 0 1-4.009 4.259v.034a4.2 4.2 0 0 1 4.01 4.36 4.2 4.2 0 0 1 4.01-4.36v-.034a4.187 4.187 0 0 1-4.009-4.259" transform="translate(-133.76 -188.377)" style="opacity:.59;fill:#fc7d47"/><path data-name="Path 60353" d="M291.677 73.354a18.964 18.964 0 0 0-16.635 18.735A18.744 18.744 0 0 0 281 105.8h2.214a18.808 18.808 0 0 1 7.269-32.128q.591-.176 1.2-.314" transform="translate(-233.123 -62.292)" style="fill:#fdb262"/><path data-name="Path 60354" d="M28.008 10.3a.461.461 0 0 0-.191-.7 4.978 4.978 0 0 0-4.76.514 10.028 10.028 0 0 0-3.042 4.166c-.8 2.151-1.547 3.733-1.547 3.733-.951-.153-.2-2.848-.019-4.1.453-3.195 3.895-7.364 4.851-7.855 1.536-.788 4.493-1.261 5.989-2.1A4.211 4.211 0 0 0 31.568.217C30.5-.32 29.253.273 28.127.6c-2 .574-4.291.245-6.31.775a16.85 16.85 0 0 0-4.763 2.581c-1.512.974-5.084 3.173-5.94 3.8C9.267 9.107 8.6 12.1 8.237 14.2a94.473 94.473 0 0 1-3.6 13.449 14.07 14.07 0 0 1-2.723 4.422C.948 33.2-.717 34.233.338 35.327c2.362 2.448 6.905 4.45 7.863 4.29 1.025-.171 1.4-1.11 1.87-1.791a16.324 16.324 0 0 1 2.116-2.526 8.047 8.047 0 0 1 2.447-1.954c.96-.447 1.537-.766 2.508-1.2a8.649 8.649 0 0 0 4.7-5.876c1.044-4.311.888-4.054 1.856-8.344.455-2.018 1.818-3.626 2.427-4.818a15.876 15.876 0 0 1 1.883-2.808" transform="translate(0 -.001)" style="fill:#fdd3a7"/><path data-name="Path 60355" d="M627.095 32.066a14.066 14.066 0 0 1-2.723-4.422 94.479 94.479 0 0 1-3.6-13.449c-.364-2.095-1.031-5.088-2.877-6.442-.856-.628-4.428-2.827-5.94-3.8a16.849 16.849 0 0 0-4.763-2.581c-2.019-.53-4.31-.2-6.31-.775-1.126-.323-2.37-.916-3.441-.379a4.211 4.211 0 0 0 2.28 3.742c1.5.84 4.453 1.313 5.989 2.1.956.491 4.4 4.66 4.851 7.855.177 1.251.933 3.945-.019 4.1 0 0-.747-1.583-1.547-3.733a10.03 10.03 0 0 0-3.042-4.166 4.978 4.978 0 0 0-4.76-.514.461.461 0 0 0-.191.7 15.89 15.89 0 0 1 1.886 2.808c.609 1.192 1.971 2.8 2.427 4.818.968 4.29.811 4.033 1.856 8.344a8.648 8.648 0 0 0 4.7 5.876c.971.431 1.548.75 2.508 1.2a8.049 8.049 0 0 1 2.447 1.954 16.322 16.322 0 0 1 2.116 2.527c.472.681.845 1.62 1.87 1.791.958.16 5.5-1.842 7.863-4.29 1.055-1.093-.61-2.122-1.578-3.261" transform="translate(-506.388)" style="fill:#fdd3a7"/><path data-name="Shape 21" d="M43.286 71.869V68.2h4.583v3.668zm-17.417 0V68.2h4.583v3.668zm12.833 0V69.03a1.834 1.834 0 0 0-1.92-1.742 1.867 1.867 0 0 0-1.745 1.883v2.7H31.37V59.954a.915.915 0 0 1 .344-.715l4.239-3.391V50.33a.458.458 0 0 1 .458-.458h4.583a.458.458 0 0 1 .458.458v2.75a.458.458 0 0 1-.458.459h-3.208v2.309l4.238 3.391a.915.915 0 0 1 .344.715v11.915zm-3.666-10.082a1.833 1.833 0 1 0 1.833-1.833 1.833 1.833 0 0 0-1.833 1.833zm-9.167 5.5v-3.242a1.34 1.34 0 0 1 1.34-1.34h3.243v4.582zm17.416 0V62.7h3.666a.917.917 0 0 1 .917.917v3.666z" transform="translate(24.366 -32.108)" style="opacity:.82;fill:url(#b)"/></g></g></svg>