<svg xmlns="http://www.w3.org/2000/svg" viewBox="0 0 30 30"><defs><style>.cls-1,.cls-4{fill:#02a569;}.cls-1{opacity:0.1;}.cls-2{fill:#3a4d95;}.cls-3{fill:#fff;}</style></defs><title>sports</title><g id="Layer_28" data-name="Layer 28"><circle class="cls-1" cx="12.55" cy="13.14" r="11.93"/></g><g id="Layer_27" data-name="Layer 27"><path class="cls-2" d="M26.07,28.49a.78.78,0,0,1-.55-.25,27,27,0,0,0-3.79-3.75l-.14-.08-.14.06a10.3,10.3,0,0,1-4.08.89,9.79,9.79,0,0,1-1.08-.07l-.15,0h0l-.25,0-.13,0-.15,0a9.28,9.28,0,0,1-.91-.22l-.23-.09-.28-.11a6.81,6.81,0,0,1-.7-.28l-.36-.2-.19-.11-.2-.11a4.49,4.49,0,0,1-.42-.24A10.11,10.11,0,0,1,11.18,23a8.68,8.68,0,0,1-.7-.65l-.07-.08a6.64,6.64,0,0,1-.56-.63,9.72,9.72,0,0,1-2.09-4.89A8.58,8.58,0,0,1,9,10.91a7.08,7.08,0,0,1,.57-.79,8.31,8.31,0,0,1,6.06-3l.5,0a9.62,9.62,0,0,1,6.18,2.32c.22.19.43.38.63.59s.42.44.59.63a10.09,10.09,0,0,1,2.27,5,8.53,8.53,0,0,1-.75,5.13L25,20.9l.12.15c.54.66,2.05,2.22,3.66,3.79.07.08.92,1.15-.68,2.59a3.35,3.35,0,0,1-1.95,1.06Zm-4.54-5.06c.37,0,1,.26,2.79,2.11.73.74,1.43,1.5,1.84,2l.14.16.21-.09a3.93,3.93,0,0,0,1.08-.76,1.69,1.69,0,0,0,.66-1v-.15l-.11-.1c-.3-.29-1.17-1.14-2-2C25.52,22.92,25,22.4,24.7,22c-.54-.61-.86-1-.63-1.42A7.51,7.51,0,0,0,25,16.94l.06-.94-8.18,8.43.79,0a10.15,10.15,0,0,0,3.57-.9A.67.67,0,0,1,21.53,23.43ZM15.73,8.11a7.37,7.37,0,0,0-5.36,2.65,7,7,0,0,0-.47.64l-.06.1c-.14.23-.25.4-.34.58l-.05.12a6.28,6.28,0,0,0-.27.59,8.44,8.44,0,0,0,2,8.77,7.55,7.55,0,0,0,.67.63,8.82,8.82,0,0,0,1,.75l.25.15c.27.17.54.32.82.46l.17.07A7.19,7.19,0,0,0,15,24l.2.06a1.5,1.5,0,0,0,.29.06l.3.07,8.91-9,0-.16a8.72,8.72,0,0,0-.44-1.31l-.05-.12a10.4,10.4,0,0,0-.6-1.15l-.06-.1a8.77,8.77,0,0,0-.8-1.07,8.32,8.32,0,0,0-1-1c-.21-.18-.42-.34-.64-.5l-.15-.09-.52-.34L20.1,9.1l-.39-.2-.24-.1L19,8.6l-.26-.09-.49-.14L18,8.31a3.68,3.68,0,0,0-.5-.1l-.3,0-.47-.05h-1Z"/></g><g id="sports"><path class="cls-3" d="M21.72,23.67a10.19,10.19,0,0,1,2.55,2.17c.86.87,1.58,1.66,1.86,2A3.37,3.37,0,0,0,27.72,27a2.25,2.25,0,0,0,.77-1.58c-.21-.2-1.06-.89-2-1.84-.61-.63-1.15-1.2-1.5-1.59-.56-.64-.94-.86-.69-1.3,1.89-3.36.73-7.88-2.51-10.63a8.74,8.74,0,0,0-6.15-2.13,7.5,7.5,0,0,0-5.49,2.72,7.74,7.74,0,0,0-1.68,6,9,9,0,0,0,3.16,5.76,8.67,8.67,0,0,0,9.72,1.29C21.45,23.61,21.61,23.67,21.72,23.67Z"/><path class="cls-4" d="M16.12,7.89h-.45a7.57,7.57,0,0,0-5.51,2.73C7.35,14,8,19.31,11.65,22.39a9.19,9.19,0,0,0,4.07,2.07l9.22-9.36A9.5,9.5,0,0,0,21.84,10,8.88,8.88,0,0,0,16.12,7.89Z"/><ellipse class="cls-2" cx="10.98" cy="22.17" rx="3.05" ry="3.1"/><path class="cls-3" d="M11,19.78a2.39,2.39,0,1,0,2.36,2.39A2.37,2.37,0,0,0,11,19.78Z"/></g></svg>