<?xml version="1.0" encoding="utf-8"?>
<!-- Generator: Adobe Illustrator 24.0.1, SVG Export Plug-In . SVG Version: 6.00 Build 0)  -->
<svg version="1.1" id="Layer_3_copy_2" xmlns="http://www.w3.org/2000/svg" xmlns:xlink="http://www.w3.org/1999/xlink" x="0px"
	 y="0px" viewBox="0 0 42 30" style="enable-background:new 0 0 42 30;" xml:space="preserve">
<style type="text/css">
	.st0{fill:#DCE1F2;}
	.st1{fill:#02A569;}
	.st2{fill:#3A4D96;}
	.st3{fill:#3A4D95;}
</style>
<path class="st0" d="M25.57,10.05h8.74v5.6c0.19,2.41-1.6,4.53-4.02,4.72c-2.41,0.19-4.53-1.6-4.72-4.02
	c-0.02-0.23-0.02-0.47,0-0.71V10.05z"/>
<path class="st0" d="M26.13,23.46h7.61c0.19,0,0.35,0.16,0.35,0.35v2.77c0,0.19-0.16,0.35-0.35,0.35h-7.61
	c-0.19,0-0.35-0.16-0.35-0.35v-2.77C25.78,23.62,25.94,23.46,26.13,23.46z"/>
<path class="st0" d="M31.12,22.76h-2.36v-1.89c0.39,0.09,0.79,0.13,1.18,0.13c0.4,0,0.79-0.04,1.17-0.13V22.76z"/>
<path class="st1" d="M19.87,8.81c0.04-0.01,0.07-0.03,0.09-0.06c0.02-0.03,0.02-0.07,0-0.1l-0.09-0.76l-0.06-0.53
	c-0.01-0.08-0.08-0.13-0.16-0.12h-0.09V6.21h0.06l0.2-0.08c0.22-0.07,0.34-0.3,0.27-0.52c-0.04-0.13-0.14-0.23-0.27-0.27l-7.01-2.56
	c-0.1-0.03-0.2-0.03-0.29,0L5.51,5.32C5.29,5.4,5.18,5.65,5.27,5.87c0.04,0.11,0.13,0.2,0.24,0.24l2.6,0.95
	C7.92,7.7,7.83,8.37,7.85,9.03c0,4.2,2.48,6.71,4.74,6.71s4.74-2.51,4.74-6.71c0.02-0.64-0.06-1.28-0.24-1.89l1.89-0.68v0.81h-0.11
	c-0.08-0.01-0.15,0.05-0.15,0.13c0,0,0,0,0,0l-0.15,1.25c-0.01,0.03-0.01,0.07,0,0.1c0.03,0.03,0.07,0.05,0.1,0.06 M12.6,14.72
	c-1.97,0-3.33-2.3-3.61-4.61C8.74,7.97,11.83,7.87,12,9.15c0.06,0.41-0.41,0.84-0.36,1.01c0.27,0.82,4.59-2.71,4.56-0.1
	C16.18,11.94,14.47,14.72,12.6,14.72z"/>
<path class="st1" d="M20.35,20.44c-0.1-0.39-0.37-0.72-0.74-0.89l-2.84-1.32l-1.37-1.16l-1.61,2.19l0,0l1.53,3.91
	c0.01,0.02,0.01,0.04,0,0.06l-2.23,1.79c-0.02,0.01-0.05,0.01-0.07,0c-0.02,0.01-0.05,0.01-0.07,0l-2.22-1.79
	c-0.01-0.02-0.01-0.04,0-0.06l1.56-3.91l0,0l-1.59-2.19l-1.37,1.16L6.5,19.55c-0.45,0.15-0.83,0.47-1.05,0.89
	c0,0-3.1,6.63-1.42,6.63h18.05C23.76,27.03,20.35,20.44,20.35,20.44z"/>
<path class="st2" d="M22.05,27.52H3.99c-0.32,0-0.62-0.16-0.8-0.43c-0.27-0.42-0.44-1.25,0.6-4.05c0.53-1.46,1.15-2.77,1.17-2.84
	c0.27-0.53,0.73-0.94,1.3-1.14l2.79-1.23l1.32-1.12c0.11-0.09,0.24-0.13,0.38-0.11c0.13,0.02,0.25,0.09,0.33,0.2l1.58,2.18l0,0
	c0.09,0.13,0.12,0.3,0.06,0.45l-1.45,3.62l1.75,1.41l1.72-1.39l-1.44-3.62c-0.08-0.14-0.08-0.31,0-0.45l0,0l1.57-2.17
	c0.08-0.11,0.2-0.18,0.34-0.2c0.13-0.01,0.27,0.03,0.37,0.11l1.4,1.09l2.79,1.28c0.47,0.22,0.81,0.64,0.95,1.14
	c0.09,0.17,0.73,1.42,1.31,2.84c1.16,2.84,1.01,3.64,0.76,4.05C22.62,27.39,22.34,27.53,22.05,27.52z M4.05,26.58h18
	c0-0.16,0.09-0.85-0.85-3.13c-0.59-1.42-1.27-2.74-1.28-2.75c-0.01-0.01,0,0,0,0c-0.18-0.42-0.26-0.54-0.48-0.63l0,0l-2.84-1.32
	l-0.11-0.08l-0.95-0.81l-1.13,1.55l1.47,3.66v0.1c0.02,0.15-0.02,0.3-0.1,0.43l-0.09,0.09l-2.25,1.72c-0.1,0.11-0.25,0.17-0.4,0.17
	c-0.15,0-0.3-0.06-0.41-0.17l-2.19-1.8c-0.04-0.02-0.06-0.06-0.09-0.09c-0.09-0.12-0.13-0.28-0.1-0.43c-0.01-0.03-0.01-0.07,0-0.1
	l1.46-3.66l-1.12-1.55L9.63,18.6c-0.03,0.03-0.07,0.06-0.11,0.08l-2.84,1.32l0,0c-0.36,0.1-0.67,0.35-0.83,0.69
	c0,0-0.63,1.34-1.16,2.78c-0.84,2.3-0.74,2.91-0.67,3.08L4.05,26.58z"/>
<path class="st2" d="M12.74,16.23c-2.53,0-5.18-2.69-5.23-7.2C7.5,8.47,7.55,7.91,7.67,7.35L5.49,6.58C5.14,6.44,4.9,6.1,4.89,5.72
	c0.01-0.38,0.24-0.72,0.6-0.86l6.98-2.54c0.2-0.07,0.42-0.07,0.63,0l7.01,2.54c0.48,0.21,0.69,0.77,0.48,1.25
	c-0.08,0.19-0.23,0.34-0.41,0.44v0.31c0.15,0.1,0.25,0.27,0.27,0.45l0.15,1.29c0.06,0.33-0.16,0.65-0.5,0.71
	c-0.01,0-0.03,0-0.04,0.01H18.8c-0.17-0.01-0.33-0.09-0.44-0.23c-0.11-0.13-0.16-0.3-0.14-0.47l0.15-1.28
	c-0.01-0.03-0.01-0.07,0-0.1l-0.57,0.2c0.11,0.53,0.16,1.08,0.15,1.62c0.04,1.88-0.54,3.72-1.66,5.23
	C15.47,15.44,14.16,16.16,12.74,16.23z M5.99,5.72l2.84,1.03L8.68,7.2c-0.17,0.59-0.25,1.2-0.24,1.82
	c-0.03,1.66,0.47,3.29,1.44,4.63c0.65,0.94,1.7,1.53,2.84,1.59c2.02,0,4.22-2.38,4.25-6.22c0.02-0.6-0.06-1.2-0.22-1.77l-0.13-0.45
	l3.01-1.09l-6.82-2.46L5.99,5.72z M19.31,7.73l-0.08,0.63h0.38l-0.07-0.59L19.31,7.73z"/>
<path class="st3" d="M37.74,11.21h-2.73V9.6c-0.01-0.19-0.16-0.34-0.35-0.34h-9.47c-0.19,0-0.34,0.15-0.34,0.34l0,0v1.61h-2.71
	c-0.58,0-1.04,0.47-1.04,1.04v0v2.92c0.15,2.57,2.28,4.57,4.85,4.55h0.66c0.43,0.38,0.93,0.68,1.46,0.89l0,0v2.08h-1.89
	c-0.58,0-1.04,0.47-1.04,1.04l0,0v2.78c0,0.58,0.47,1.04,1.04,1.04l0,0h7.58c0.58,0,1.04-0.47,1.04-1.04v-2.8
	c0-0.58-0.47-1.04-1.04-1.04h-1.89v-2.08l0,0c0.53-0.22,1.03-0.52,1.46-0.9h0.66c2.57,0.02,4.7-1.98,4.85-4.55v-2.92
	c-0.02-0.58-0.5-1.02-1.08-1C37.75,11.21,37.74,11.21,37.74,11.21z M35.01,13.6h1.7v1.57c-0.15,1.09-0.91,1.99-1.96,2.32
	c0.18-0.52,0.27-1.06,0.27-1.6V13.6z M25.54,9.99h8.74v5.6c0.19,2.41-1.6,4.53-4.02,4.72c-2.41,0.19-4.53-1.6-4.72-4.02
	c-0.02-0.23-0.02-0.47,0-0.71V9.99z M25.1,17.49c-1.05-0.32-1.82-1.23-1.95-2.32v-1.61h1.7v2.29c0.01,0.55,0.1,1.09,0.28,1.6
	L25.1,17.49z M21.76,15.17v-2.96c0.01-0.19,0.16-0.34,0.35-0.34h2.74v0.99h-2.02c-0.19,0.01-0.34,0.16-0.34,0.35v1.89
	c0,0.76,0.27,1.49,0.77,2.07c0.61,0.57,1.39,0.94,2.22,1.05c0.14,0.26,0.3,0.5,0.48,0.73l0,0c-2.18,0.03-4.01-1.65-4.17-3.83
	L21.76,15.17z M34.07,23.74v2.78c0,0.19-0.15,0.34-0.34,0.34c0,0-0.01,0-0.01,0h-7.58c-0.19,0-0.35-0.15-0.35-0.34v-2.81
	c0-0.19,0.16-0.35,0.35-0.35h0h7.58c0.19-0.02,0.35,0.12,0.37,0.31c0,0.01,0,0.03,0,0.04L34.07,23.74z M31.1,22.7h-2.34v-1.89
	c0.39,0.09,0.79,0.13,1.18,0.13c0.4,0,0.79-0.04,1.17-0.13L31.1,22.7z M38.05,15.13c-0.15,2.18-1.97,3.87-4.16,3.85l0,0
	c0.18-0.23,0.34-0.47,0.47-0.73c0.83-0.11,1.61-0.48,2.22-1.05c0.5-0.57,0.78-1.31,0.78-2.07v-1.89c0-0.19-0.16-0.35-0.35-0.35h-2
	v-1.01h2.73c0.19-0.01,0.35,0.14,0.35,0.33c0,0,0,0.01,0,0.01L38.05,15.13z"/>
<path class="st2" d="M33.74,27.73h-7.58c-0.69,0-1.25-0.56-1.26-1.25v-2.78c0.01-0.69,0.57-1.25,1.26-1.26h1.71v-1.76
	c-0.48-0.21-0.92-0.49-1.32-0.82h-0.59c-1.3-0.01-2.55-0.51-3.51-1.38c-0.97-0.86-1.53-2.08-1.55-3.37v-2.89
	c0.01-0.69,0.57-1.25,1.26-1.25h2.52V9.6c0.01-0.31,0.25-0.55,0.56-0.56h9.47C35,9.07,35.21,9.32,35.21,9.6v1.36h2.52
	c0.69-0.01,1.26,0.54,1.27,1.23c0,0.01,0,0.01,0,0.02v2.92c-0.02,1.29-0.58,2.52-1.55,3.37c-0.96,0.88-2.21,1.37-3.51,1.38h-0.62
	c-0.39,0.34-0.84,0.62-1.32,0.82v1.73h1.71c0.69,0.01,1.25,0.57,1.26,1.26v2.78C34.97,27.16,34.42,27.72,33.74,27.73z M26.16,22.87
	c-0.46,0-0.82,0.37-0.82,0.82c0,0,0,0.01,0,0.01v2.78c0,0.46,0.37,0.82,0.82,0.82h0h7.58c0.46,0.01,0.83-0.36,0.83-0.81
	c0,0,0-0.01,0-0.01v-2.78c0.01-0.46-0.36-0.83-0.81-0.83c-0.01,0-0.01,0-0.02,0H31.6v-2.45h0.14c0.51-0.21,0.98-0.5,1.39-0.86
	l0.07-0.05h0.74c2.45,0.02,4.49-1.88,4.64-4.33v-2.97c0-0.46-0.37-0.82-0.82-0.82c0,0-0.01,0-0.01,0h-2.96V9.6
	c0-0.07-0.06-0.13-0.13-0.13h-9.47c-0.07,0-0.13,0.06-0.13,0.13v1.79h-2.92c-0.46,0-0.82,0.37-0.82,0.82c0,0,0,0,0,0v2.92
	c0.15,2.45,2.18,4.35,4.63,4.33h0.74l0.06,0.05c0.41,0.36,0.88,0.66,1.39,0.86h0.14v2.45L26.16,22.87z M33.74,27.04h-7.58
	c-0.31,0-0.56-0.25-0.56-0.56l0,0v-2.78c-0.01-0.31,0.24-0.56,0.55-0.57c0,0,0.01,0,0.01,0h7.58c0.31,0,0.57,0.25,0.57,0.57v2.78
	C34.31,26.79,34.05,27.04,33.74,27.04z M26.16,23.57c-0.07,0-0.13,0.06-0.13,0.13v2.78c0,0.07,0.06,0.13,0.13,0.13h7.58
	c0.07,0,0.13-0.06,0.13-0.13v-2.78c0-0.07-0.06-0.13-0.13-0.13H26.16z M31.36,22.87h-2.79v-2.36l0.27,0.07
	c0.75,0.17,1.52,0.17,2.26,0l0.27-0.07L31.36,22.87z M29.01,22.45h1.89v-1.39c-0.63,0.11-1.27,0.11-1.89,0V22.45z M29.95,20.45
	c-1.24,0.01-2.42-0.49-3.27-1.39c-0.88-0.95-1.37-2.21-1.35-3.51V9.74h9.18v5.81c0.02,1.3-0.46,2.56-1.35,3.51
	C32.34,19.95,31.17,20.45,29.95,20.45L29.95,20.45z M25.78,10.17v5.38c-0.16,2.3,1.58,4.28,3.88,4.44c2.3,0.16,4.28-1.58,4.44-3.88
	c0.01-0.19,0.01-0.37,0-0.56v-5.38H25.78z M33.93,19.2h-0.45l0.27-0.35c0.17-0.22,0.32-0.45,0.45-0.7l0.06-0.09h0.1
	c0.77-0.1,1.5-0.43,2.08-0.95c0.46-0.53,0.71-1.2,0.72-1.89v-1.89c0-0.07-0.06-0.13-0.13-0.13h-2.25v-1.53h2.95
	c0.31,0,0.56,0.25,0.57,0.56v2.92C38.16,17.43,36.24,19.22,33.93,19.2z M34.55,18.45l-0.19,0.29c1.9-0.17,3.4-1.7,3.51-3.61v-2.92
	c0-0.07-0.06-0.13-0.13-0.13h-2.53v0.58h1.83c0.3-0.01,0.55,0.24,0.56,0.54c0,0.01,0,0.01,0,0.02v1.89c0,0.81-0.29,1.59-0.82,2.21
	C36.16,17.92,35.39,18.31,34.55,18.45z M26.39,19.2h-0.45c-2.3,0.02-4.22-1.76-4.37-4.06v-2.92c0-0.31,0.25-0.56,0.56-0.56l0,0h2.95
	v1.45h-2.25c-0.07,0-0.13,0.06-0.13,0.13v1.89c0.01,0.7,0.26,1.37,0.72,1.89c0.59,0.52,1.32,0.85,2.09,0.95h0.1l0.05,0.09
	c0.13,0.25,0.28,0.48,0.45,0.7L26.39,19.2z M22.14,12.08c-0.07,0-0.13,0.06-0.13,0.13v2.92c0.1,1.92,1.6,3.48,3.51,3.66
	c-0.07-0.09-0.12-0.2-0.18-0.29c-0.84-0.13-1.63-0.52-2.25-1.11c-0.53-0.61-0.82-1.4-0.82-2.21v-1.89c-0.01-0.3,0.24-0.55,0.54-0.56
	c0.01,0,0.01,0,0.02,0h1.83v-0.58L22.14,12.08z M34.45,17.77l0.14-0.42c0.16-0.5,0.25-1.01,0.25-1.53v-2.46h2.07v1.78
	c-0.13,1.18-0.95,2.17-2.09,2.52L34.45,17.77z M35.21,13.78v2.07c0,0.41-0.05,0.82-0.14,1.22c0.78-0.35,1.32-1.09,1.41-1.94v-1.35
	H35.21z M25.47,17.84l-0.42-0.15c-1.14-0.35-1.96-1.34-2.09-2.52v-1.82h2.12v2.5c0,0.52,0.08,1.04,0.25,1.53L25.47,17.84z
	 M23.39,13.82v1.35c0.11,0.83,0.64,1.55,1.4,1.9c-0.1-0.4-0.14-0.81-0.14-1.22v-2.07L23.39,13.82z"/>
</svg>
