<svg xmlns="http://www.w3.org/2000/svg" viewBox="0 0 30 30"><defs><style>.cls-1,.cls-3{fill:#02a569;}.cls-1{opacity:0.1;}.cls-2{fill:#3a4d95;}.cls-4{fill:#fff;}</style></defs><title>transport</title><g id="Layer_3" data-name="Layer 3"><circle class="cls-1" cx="12.55" cy="13.14" r="11.93"/></g><g id="Layer_31" data-name="Layer 31"><path class="cls-2" d="M23.91,28.1a2.1,2.1,0,0,1-2.06-1.54l-.11-.45H15l-.11.45a2.15,2.15,0,0,1-4.12,0l-.11-.45H9.75A1.73,1.73,0,0,1,8,24.44V17.07a1.73,1.73,0,0,1,1.77-1.68H25.29a3.42,3.42,0,0,1,3.49,3.33v5.72A1.72,1.72,0,0,1,27,26.11h-.93l-.12.45A2.09,2.09,0,0,1,23.91,28.1Z"/><path class="cls-3" d="M27.49,22.32h.39v-.88H23.22a.63.63,0,0,1-.65-.61V16.3H10a1.06,1.06,0,0,0-1.08,1V24a1.06,1.06,0,0,0,1.08,1h1a2.09,2.09,0,0,1,3.78,0H22a2.1,2.1,0,0,1,3.79,0h1a1.05,1.05,0,0,0,1.08-1v-.48h-.39a.62.62,0,1,1,0-1.24Z"/><polygon class="cls-2" points="16.91 20.85 16.94 18.06 20.65 18.11 20.62 20.85 16.91 20.85"/><polygon class="cls-2" points="10.91 20.85 10.94 18.06 14.65 18.11 14.62 20.85 10.91 20.85"/></g><g id="Layer_14" data-name="Layer 14"><path class="cls-4" d="M27.88,19v1.65H23.35V16.3h1.72A2.75,2.75,0,0,1,27.88,19Z"/><path class="cls-4" d="M12.86,27.66a1.59,1.59,0,0,1-1.62-1.56h0a1.63,1.63,0,1,1,1.62,1.56Z"/><path class="cls-4" d="M23.88,27.65a1.59,1.59,0,0,1-1.61-1.55h0a1.62,1.62,0,1,1,1.61,1.55Z"/><rect class="cls-4" x="17.41" y="18.61" width="2.74" height="1.73"/><rect class="cls-4" x="11.41" y="18.61" width="2.74" height="1.73"/></g></svg>