<svg id="Capa_1_copy_2" data-name="Capa 1 copy 2" xmlns="http://www.w3.org/2000/svg" viewBox="0 0 42 30"><defs><style>.cls-1{fill:#02a569;}.cls-2{fill:#3a4d96;}.cls-3{fill:#dce1f2;}.cls-4{fill:#3a4d95;}</style></defs><title>Verified Reviews</title><g id="Path_48" data-name="Path 48"><path class="cls-1" d="M15.17,24.82l-4.41,2a2.15,2.15,0,0,1-3-2.24l.45-5a2.35,2.35,0,0,0-.52-1.67L4.55,14.15a2.25,2.25,0,0,1,1.13-3.62l4.69-1.1a2.12,2.12,0,0,0,1.36-1l2.45-4.31a2.09,2.09,0,0,1,3.66,0L20.29,8.4a2.14,2.14,0,0,0,1.36,1l4.69,1.1a2.24,2.24,0,0,1,1.13,3.62L24.3,17.91a2.27,2.27,0,0,0-.52,1.67l.44,5a2.14,2.14,0,0,1-2.95,2.24l-4.42-2A2,2,0,0,0,15.17,24.82Z"/><path class="cls-2" d="M9.91,27.51A2.57,2.57,0,0,1,8.42,27a2.75,2.75,0,0,1-1.14-2.51l.45-5a1.76,1.76,0,0,0-.4-1.29L4.16,14.49a2.79,2.79,0,0,1-.51-2.69A2.66,2.66,0,0,1,5.56,10l4.69-1.09a1.66,1.66,0,0,0,1-.78l2.45-4.31a2.6,2.6,0,0,1,3.53-1,2.55,2.55,0,0,1,1,1l2.45,4.3a1.63,1.63,0,0,0,1,.79L26.46,10a2.69,2.69,0,0,1,1.92,1.78,2.79,2.79,0,0,1-.51,2.69l-3.18,3.76a1.76,1.76,0,0,0-.4,1.28l.45,5A2.74,2.74,0,0,1,23.61,27a2.58,2.58,0,0,1-2.56.25l-4.41-2a1.54,1.54,0,0,0-1.26,0h0l-4.41,2A2.63,2.63,0,0,1,9.91,27.51Zm6.1-24a1.72,1.72,0,0,0-.44.06,1.58,1.58,0,0,0-.93.75h0L12.18,8.66a2.62,2.62,0,0,1-1.69,1.28L5.8,11a1.61,1.61,0,0,0-1.17,1.09A1.78,1.78,0,0,0,5,13.82l3.17,3.76a2.78,2.78,0,0,1,.64,2.05l-.44,5A1.69,1.69,0,0,0,9,26.18a1.49,1.49,0,0,0,1.52.15l4.42-2a2.59,2.59,0,0,1,2.11,0l4.41,2A1.49,1.49,0,0,0,23,26.18a1.72,1.72,0,0,0,.71-1.57l-.45-5a2.78,2.78,0,0,1,.64-2.05l3.17-3.76a1.73,1.73,0,0,0,.32-1.69A1.61,1.61,0,0,0,26.22,11l-4.69-1.1a2.67,2.67,0,0,1-1.69-1.28L17.38,4.34a1.54,1.54,0,0,0-.62-.62A1.52,1.52,0,0,0,16,3.53Z"/></g><path class="cls-3" d="M28.74,18.36a10.59,10.59,0,0,1-3.61-3,12.25,12.25,0,0,1-1.92-3.72,15.29,15.29,0,0,1-.7-4,13.33,13.33,0,0,0,2.34-.58,14.35,14.35,0,0,0,2.24-1,13.47,13.47,0,0,0,1.65-1,15.27,15.27,0,0,0,1.65,1,14.45,14.45,0,0,0,2.25,1A13.45,13.45,0,0,0,35,7.66a14.81,14.81,0,0,1-.68,3.95,12.25,12.25,0,0,1-1.92,3.74A10.53,10.53,0,0,1,28.74,18.36Z"/><path class="cls-4" d="M36.14,7.12l0-.51-.5-.05A12.7,12.7,0,0,1,31,5.07a13,13,0,0,1-1.86-1.21l-.38-.32-.37.32a13,13,0,0,1-1.86,1.21,12.7,12.7,0,0,1-4.64,1.49l-.51.05,0,.51A15.61,15.61,0,0,0,22.09,12a13.3,13.3,0,0,0,2.1,4.09,11.68,11.68,0,0,0,4.3,3.47l.25.12.25-.12a11.71,11.71,0,0,0,4.31-3.47A13.52,13.52,0,0,0,35.4,12,15.08,15.08,0,0,0,36.14,7.12Zm-7.4,11.24a10.59,10.59,0,0,1-3.61-3,12.25,12.25,0,0,1-1.92-3.72,15.29,15.29,0,0,1-.7-4,13.33,13.33,0,0,0,2.34-.58,14.35,14.35,0,0,0,2.24-1,13.47,13.47,0,0,0,1.65-1,15.27,15.27,0,0,0,1.65,1,14.45,14.45,0,0,0,2.25,1A13.45,13.45,0,0,0,35,7.66a14.81,14.81,0,0,1-.68,3.95,12.25,12.25,0,0,1-1.92,3.74A10.53,10.53,0,0,1,28.74,18.36Z"/><polygon class="cls-1" points="37.27 3.79 29.23 11.98 27.16 9.87 26.34 10.7 29.23 13.64 38.09 4.61 37.27 3.79"/><path class="cls-1" d="M29.23,14.05l-3.3-3.36,1.24-1.23,2.06,2.11,8-8.2L38.5,4.61ZM26.74,10.7l2.49,2.52,8.46-8.61-.42-.41-8,8.2-2.07-2.12Z"/></svg>