<svg xmlns="http://www.w3.org/2000/svg" viewBox="0 0 30 30"><defs><style>.cls-1,.cls-3{fill:#02a569;}.cls-1{opacity:0.1;}.cls-2{fill:#fff;}.cls-4{fill:#3a4d95;}</style></defs><title>wifi</title><g id="Layer_3" data-name="Layer 3"><circle class="cls-1" cx="12.55" cy="13.14" r="11.93"/></g><g id="Layer_11" data-name="Layer 11"><path class="cls-2" d="M18.7,28.44,8.05,17.15s4-5.62,10.16-5.62,10.17,5.62,10.17,5.62Z"/><path class="cls-3" d="M20,27.88a1.94,1.94,0,0,1-2.72,0,2,2,0,0,1,0-2.74,2,2,0,0,1,2.78,0A2,2,0,0,1,20,27.88Z"/><path class="cls-4" d="M24.22,20.4a7.94,7.94,0,0,0-11.77,0l-.64.73-.48-.51.68-.78a8.43,8.43,0,0,1,12.65,0l.72.78-.46.53Z"/><path class="cls-4" d="M27.7,16.42a12.66,12.66,0,0,0-19,0l-.67.73-.46-.5.7-.77a13.22,13.22,0,0,1,19.84,0l.71.77-.46.5Z"/></g></svg>